<svg width="72" height="73" viewBox="0 0 72 73" fill="none" xmlns="http://www.w3.org/2000/svg">
<path d="M48.827 69.6442L48.6597 69.198C62.3607 63.9927 71.5629 50.645 71.5629 36.0144C71.5629 16.4389 55.6125 0.507076 36.0184 0.507076C16.4242 0.507076 0.473826 16.4389 0.473826 36.0144C0.473826 45.0307 3.85725 53.638 10.0292 60.2375L9.67599 60.5721C3.42967 53.8797 -0.00952148 45.1608 -0.00952148 36.033C-0.00952148 16.1786 16.1454 0.0423203 35.9998 0.0423203C55.8542 0.0423203 72.0091 16.1786 72.0091 36.033C72.0463 50.8494 62.714 64.3831 48.827 69.6442Z" fill="#20631E"/>
<path d="M36.0184 67.1902C53.2466 67.1902 67.2128 53.2324 67.2128 36.0144C67.2128 18.7965 53.2466 4.83858 36.0184 4.83858C18.7902 4.83858 4.82397 18.7965 4.82397 36.0144C4.82397 53.2324 18.7902 67.1902 36.0184 67.1902Z" fill="url(#paint0_radial_63_225)" stroke="#20631E" stroke-width="0.5669" stroke-miterlimit="22.9256"/>
<path fill-rule="evenodd" clip-rule="evenodd" d="M36.0184 5.97261L40.7032 9.95092L41.4282 11.5311L44.8302 14.7472L51.7458 17.4242L57.2857 14.7658L57.769 20.882L57.1369 22.5923L57.3042 27.2027L60.5947 33.3746L66.0974 36.0144L62.1005 40.6806L60.1671 41.6101L57.3042 44.8262L55.5196 50.4962L57.2857 57.2631L51.1695 57.7464L49.2175 57.0586L44.8302 57.2817L39.0672 59.8471L36.0184 66.0563L31.3523 62.078L30.5529 60.3862L27.2066 57.2817L20.9046 55.7573L14.7698 57.2631L14.2864 51.1469L14.7512 49.8642V44.8262L11.1447 38.5241L5.95801 36.0144L9.93632 31.3483L11.7953 30.4745L14.7512 27.2027L16.666 20.6031L14.7698 14.7658L20.7558 14.2824L22.9123 14.9889L27.2066 14.7472L33.9363 10.899L36.0184 5.97261Z" fill="white"/>
<path fill-rule="evenodd" clip-rule="evenodd" d="M22.9123 14.9889C22.5405 14.8773 22.4475 14.8773 22.0571 14.71C28.5451 18.2236 37.1152 15.5837 40.7031 9.9509L38.6768 7.90598L39.123 8.35214C39.0858 8.4265 39.03 8.50086 38.9928 8.57523C35.7767 14.1151 29.7349 16.2344 23.5258 15.1004H23.4886H23.47H23.4886C23.2841 15.0818 23.0982 15.026 22.9123 14.9889Z" fill="#E7353F"/>
<path fill-rule="evenodd" clip-rule="evenodd" d="M22.0571 14.71C24.0091 15.5652 27.5227 15.2305 28.7682 14.8773C32.1144 13.9478 35.8883 10.5644 37.6172 6.88352C37.0409 6.30722 36.7806 6.10273 36.0184 5.30334C33.4158 9.70923 31.3522 12.8138 26.8534 14.3196C26.1098 14.5799 23.5629 15.0446 22.0571 14.71Z" fill="white"/>
<path fill-rule="evenodd" clip-rule="evenodd" d="M37.6172 6.86493L39.1044 8.35215C35.9255 14.0965 29.7535 16.2902 23.4514 15.1004C25.3662 15.4164 27.7643 15.1562 28.7682 14.8773C32.1145 13.9478 35.9069 10.5644 37.6172 6.86493Z" fill="#0060AC"/>
<path fill-rule="evenodd" clip-rule="evenodd" d="M19.4732 13.2042L19.436 13.2414C19.343 13.3529 19.2501 13.4831 19.1757 13.5946C19.0084 13.8549 18.9712 13.9106 18.8225 14.1895C20.8117 8.81691 26.6304 6.00978 32.8953 7.58995L31.7055 9.35602C27.0022 7.66431 22.4476 9.41179 19.4732 13.2042Z" fill="#0060AC"/>
<path fill-rule="evenodd" clip-rule="evenodd" d="M11.8882 30.4188C11.5536 30.6047 11.4793 30.6604 11.0889 30.8278C18.1532 28.7271 22.3546 20.8076 20.9045 14.2824H18.023H18.6551C18.6737 14.3568 18.6923 14.4498 18.7295 14.5241C20.384 20.7147 17.5955 26.4776 12.4088 30.047L12.3902 30.0656L12.3716 30.0841H12.3902C12.2043 30.2143 12.037 30.3072 11.8882 30.4188Z" fill="#E7353F"/>
<path fill-rule="evenodd" clip-rule="evenodd" d="M11.0703 30.8278C13.0595 30.0656 15.3089 27.3328 15.941 26.1988C17.6513 23.1872 17.9301 18.1306 16.5358 14.301C15.7179 14.301 15.3832 14.3196 14.2864 14.301C15.5506 19.246 16.2942 22.9269 14.1935 27.1469C13.8403 27.8719 12.3716 29.9912 11.0703 30.8278Z" fill="white"/>
<path fill-rule="evenodd" clip-rule="evenodd" d="M16.5359 14.2824H18.6366C20.4584 20.5845 17.6327 26.4962 12.3345 30.1213C13.9146 28.9873 15.4205 27.1097 15.941 26.1988C17.6513 23.1686 17.9301 18.112 16.5359 14.2824Z" fill="#0060AC"/>
<path fill-rule="evenodd" clip-rule="evenodd" d="M8.18871 31.5714V31.6271C8.2073 31.7759 8.22589 31.9246 8.24448 32.0547C8.30025 32.3521 8.31884 32.4265 8.41179 32.724C6.01365 27.5373 8.13294 21.4211 13.6914 18.112L14.1004 20.1941C9.58298 22.3506 7.61241 26.7937 8.18871 31.5714Z" fill="#0060AC"/>
<path fill-rule="evenodd" clip-rule="evenodd" d="M14.9928 49.1206C14.8812 49.4924 14.8812 49.5853 14.7139 49.9757C18.2275 43.4877 15.5877 34.9362 9.95484 31.3483L7.90991 33.3746L8.35608 32.9285C8.43044 32.9656 8.5048 33.0214 8.57916 33.0586C14.1191 36.2747 16.2383 42.3165 15.1043 48.5071V48.5443V48.5628V48.5443C15.0672 48.7487 15.03 48.9347 14.9928 49.1206Z" fill="#E7353F"/>
<path fill-rule="evenodd" clip-rule="evenodd" d="M14.714 49.9757C15.5692 48.0237 15.2346 44.5288 14.8813 43.2646C13.9518 39.9184 10.5684 36.1446 6.88754 34.4343C6.31125 35.0106 6.08816 35.2708 5.30737 36.033C9.71326 38.6357 12.8364 40.6992 14.3236 45.1794C14.5653 45.9416 15.0301 48.4699 14.714 49.9757Z" fill="white"/>
<path fill-rule="evenodd" clip-rule="evenodd" d="M6.8689 34.4157L8.35612 32.9285C14.1005 36.1074 16.2941 42.2794 15.1044 48.5629C15.4204 46.6481 15.1601 44.2499 14.8813 43.246C13.9518 39.9184 10.5498 36.1446 6.8689 34.4157Z" fill="#0060AC"/>
<path fill-rule="evenodd" clip-rule="evenodd" d="M13.1894 52.5597L13.2266 52.5969C13.3381 52.6899 13.4683 52.7828 13.5798 52.8572C13.8401 53.0245 13.8958 53.0617 14.1747 53.2104C8.80212 51.2212 5.97641 45.4211 7.57517 39.1376L9.34124 40.3273C7.66812 45.0307 9.39701 49.5667 13.1894 52.5597Z" fill="#0060AC"/>
<path fill-rule="evenodd" clip-rule="evenodd" d="M30.4227 60.1445C30.6086 60.4792 30.6644 60.5535 30.8317 60.9439C28.731 53.8796 20.8116 49.6782 14.2864 51.1469V54.0284V53.3963C14.3607 53.3777 14.4537 53.3591 14.5281 53.3219C20.7186 51.6674 26.5002 54.4559 30.0695 59.6426L30.0881 59.6612L30.1067 59.6798C30.2182 59.8285 30.3298 59.9772 30.4227 60.1445Z" fill="#E7353F"/>
<path fill-rule="evenodd" clip-rule="evenodd" d="M30.8317 60.9439C30.0695 58.9548 27.3367 56.724 26.2027 56.0733C23.1911 54.363 18.116 54.0841 14.2864 55.4784C14.2864 56.2964 14.305 56.631 14.2864 57.7278C19.25 56.4637 22.9122 55.7201 27.1322 57.8208C27.8758 58.1926 29.9951 59.6426 30.8317 60.9439Z" fill="white"/>
<path fill-rule="evenodd" clip-rule="evenodd" d="M14.2864 55.497V53.3963C20.6071 51.5931 26.5002 54.4002 30.1253 59.6798C28.9913 58.0997 27.1136 56.5938 26.2027 56.0733C23.1725 54.3816 18.0974 54.1028 14.2864 55.497Z" fill="#0060AC"/>
<path fill-rule="evenodd" clip-rule="evenodd" d="M31.5939 63.844H31.6497C31.7984 63.8254 31.9471 63.8068 32.0772 63.7883C32.3747 63.7325 32.449 63.7139 32.7465 63.6209C27.5412 66.0191 21.4436 63.8998 18.116 58.3413L20.2167 57.9323C22.3545 62.4312 26.7976 64.4203 31.5939 63.844Z" fill="#0060AC"/>
<path fill-rule="evenodd" clip-rule="evenodd" d="M49.1432 57.04C49.515 57.1515 49.6079 57.1515 49.9983 57.3188C43.5103 53.8053 34.9402 56.4451 31.3523 62.0779L33.3786 64.1229L32.9325 63.6767C32.9696 63.6023 33.0254 63.528 33.0626 63.4536C36.2787 57.9137 42.3205 55.7944 48.5297 56.9284H48.5669H48.5854H48.5669C48.7713 56.947 48.9572 56.9842 49.1432 57.04Z" fill="#E7353F"/>
<path fill-rule="evenodd" clip-rule="evenodd" d="M49.9983 57.3188C48.0463 56.4637 44.5327 56.7983 43.2872 57.1515C39.9409 58.081 36.1671 61.4645 34.4382 65.1453C35.0145 65.7216 35.2748 65.9261 36.037 66.7255C38.6396 62.3196 40.7031 59.215 45.202 57.7092C45.9456 57.449 48.4925 56.9842 49.9983 57.3188Z" fill="white"/>
<path fill-rule="evenodd" clip-rule="evenodd" d="M34.4381 65.1639L32.9509 63.6767C36.1299 57.9323 42.3018 55.7387 48.6039 56.9285C46.6891 56.6124 44.291 56.8727 43.2871 57.1515C39.9409 58.0811 36.1484 61.4645 34.4381 65.1639Z" fill="#0060AC"/>
<path fill-rule="evenodd" clip-rule="evenodd" d="M52.5823 58.8247L52.6195 58.7875C52.7124 58.6759 52.8054 58.5458 52.8798 58.4343C53.0471 58.174 53.0842 58.1182 53.233 57.8394C51.2438 63.212 45.4251 66.0191 39.1602 64.4389L40.3499 62.6728C45.0533 64.3646 49.5893 62.6171 52.5823 58.8247Z" fill="#0060AC"/>
<path fill-rule="evenodd" clip-rule="evenodd" d="M60.1672 41.6101C60.5018 41.4242 60.5762 41.3684 60.9666 41.2011C53.9023 43.3018 49.7009 51.2212 51.1509 57.7464H54.0324H53.4004C53.3818 57.6721 53.3446 57.5791 53.326 57.5048C51.6715 51.3142 54.46 45.5512 59.6467 41.9633L59.6653 41.9447L59.6839 41.9261C59.8512 41.8146 60.0185 41.7216 60.1672 41.6101Z" fill="#E7353F"/>
<path fill-rule="evenodd" clip-rule="evenodd" d="M60.9664 41.2011C58.9772 41.9633 56.7278 44.6961 56.0957 45.8301C54.3854 48.8417 54.1066 53.8982 55.5008 57.7278C56.3188 57.7278 56.6534 57.7092 57.7502 57.7278C56.4861 52.7828 55.7425 49.102 57.8432 44.882C58.215 44.157 59.6836 42.0377 60.9664 41.2011Z" fill="white"/>
<path fill-rule="evenodd" clip-rule="evenodd" d="M55.5194 57.7464H53.4187C51.5969 51.4443 54.4226 45.5326 59.7208 41.9075C58.1406 43.0415 56.6348 44.9192 56.1143 45.8301C54.404 48.8603 54.1252 53.9168 55.5194 57.7464Z" fill="#0060AC"/>
<path fill-rule="evenodd" clip-rule="evenodd" d="M63.8665 40.4575V40.4017C63.8479 40.253 63.8293 40.1043 63.8108 39.9742C63.755 39.6767 63.7364 39.6023 63.6435 39.3049C66.0416 44.4916 63.9223 50.6078 58.3638 53.9168L57.9548 51.8347C62.4537 49.6783 64.4428 45.2352 63.8665 40.4575Z" fill="#0060AC"/>
<path fill-rule="evenodd" clip-rule="evenodd" d="M57.0625 22.9083C57.1741 22.5365 57.1741 22.4436 57.3414 22.0532C53.8278 28.5412 56.4677 37.0927 62.1005 40.6806L64.1454 38.6543L63.6993 39.1004C63.6249 39.0632 63.5505 39.0075 63.4762 38.9703C57.9363 35.7542 55.817 29.7123 56.951 23.5218V23.4846V23.466V23.4846C56.9882 23.2801 57.0254 23.0942 57.0625 22.9083Z" fill="#E7353F"/>
<path fill-rule="evenodd" clip-rule="evenodd" d="M57.3414 22.0532C56.4863 24.0051 56.8209 27.5001 57.1741 28.7642C58.1036 32.1105 61.487 35.8843 65.1679 37.5946C65.7442 37.0183 65.9673 36.758 66.7481 35.9958C62.3422 33.3932 59.219 31.3297 57.7318 26.8494C57.4715 26.0872 57.0068 23.559 57.3414 22.0532Z" fill="white"/>
<path fill-rule="evenodd" clip-rule="evenodd" d="M65.1865 37.6132L63.6993 39.1004C57.9549 35.9215 55.7613 29.7495 56.9511 23.466C56.635 25.3808 56.8953 27.779 57.1742 28.7828C58.1037 32.1105 61.5057 35.8843 65.1865 37.6132Z" fill="#0060AC"/>
<path fill-rule="evenodd" clip-rule="evenodd" d="M58.8471 19.4691L58.8099 19.4319C58.6984 19.339 58.5682 19.246 58.4567 19.1717C58.1964 19.0044 58.1407 18.9672 57.8618 18.8185C63.2344 20.8076 66.0601 26.6078 64.4614 32.8913L62.6953 31.7015C64.387 26.9982 62.6581 22.4436 58.8471 19.4691Z" fill="#0060AC"/>
<path fill-rule="evenodd" clip-rule="evenodd" d="M41.6326 11.8843C41.4467 11.5497 41.3909 11.4753 41.2236 11.0849C43.3243 18.1492 51.2438 22.3506 57.7689 20.882V18.0005V18.6326C57.6946 18.6512 57.6016 18.6697 57.5273 18.7069C51.3367 20.3615 45.5552 17.5729 41.9858 12.3862L41.9672 12.3677L41.9487 12.3491C41.8371 12.2003 41.7256 12.0516 41.6326 11.8843Z" fill="#E7353F"/>
<path fill-rule="evenodd" clip-rule="evenodd" d="M41.2236 11.0849C41.9858 13.0741 44.7186 15.3049 45.8526 15.9556C48.8642 17.6659 53.9394 17.9447 57.7689 16.5505C57.7689 15.7325 57.7504 15.3979 57.7689 14.301C52.8054 15.5652 49.1431 16.3088 44.9231 14.2081C44.1795 13.8363 42.0602 12.3862 41.2236 11.0849Z" fill="white"/>
<path fill-rule="evenodd" clip-rule="evenodd" d="M57.7691 16.5319V18.6326C51.4484 20.4358 45.5553 17.6287 41.9302 12.3491C43.0642 13.9292 44.9418 15.435 45.8527 15.9556C48.8643 17.6473 53.9395 17.9261 57.7691 16.5319Z" fill="#0060AC"/>
<path fill-rule="evenodd" clip-rule="evenodd" d="M40.4614 8.18483H40.4057C40.2569 8.20342 40.1082 8.22201 39.9781 8.2406C39.6806 8.29638 39.6063 8.31497 39.3088 8.40792C44.5141 6.00978 50.6117 8.12906 53.9394 13.6875L51.8387 14.0965C49.7008 9.59769 45.2577 7.60854 40.4614 8.18483Z" fill="#0060AC"/>
<path fill-rule="evenodd" clip-rule="evenodd" d="M29.4001 39.6767C29.4001 40.9037 29.1213 41.8704 28.545 42.5954C28.0245 43.2274 27.2808 43.6922 26.277 43.9711C25.4404 44.1941 24.3622 44.3243 23.0795 44.3243C21.6108 44.3243 20.4582 44.0454 19.6403 43.5063C18.7479 42.9114 18.3018 42.0191 18.3018 40.8293C18.3018 40.1786 18.3947 39.4908 18.5992 38.7844C18.7665 38.1895 19.0082 37.5202 19.3428 36.7952C19.5845 36.2747 19.9005 35.6426 20.3095 34.9176L20.7185 35.1407C20.421 35.6612 20.1794 36.1074 19.9935 36.5164C19.7332 37.0555 19.5473 37.5388 19.4172 37.9664C19.2685 38.4869 19.1941 38.9889 19.1941 39.4722C19.1941 40.4017 19.5287 41.1268 20.2166 41.5915C20.9044 42.0749 21.8525 42.3165 23.0609 42.3165C24.3436 42.3165 25.5519 42.0934 26.6488 41.6473C27.8571 41.1639 28.452 40.569 28.452 39.8998C28.452 39.1562 28.3405 37.8921 28.0988 36.126C27.9129 34.7689 27.6898 33.2445 27.4296 31.5528L27.0578 29.322L26.5372 29.0431C26.5372 28.0206 26.7417 27.0911 27.1693 26.236H27.3738C27.411 26.5334 27.4482 26.7379 27.5225 26.8866C27.5969 27.0353 27.727 27.1283 27.8943 27.2027C28.136 27.2956 28.3777 27.4257 28.6565 27.5559C28.861 27.6488 29.0469 27.7418 29.1956 27.8161C29.1956 28.3553 29.177 28.7456 29.1399 28.9873C29.1027 29.229 29.0283 29.5822 28.9168 30.0284L28.2661 29.8239C28.2847 29.9912 28.3963 30.7534 28.6007 32.1291C28.8424 33.7278 29.0097 35.0292 29.1213 36.033C29.3072 37.6132 29.4001 38.8216 29.4001 39.6767ZM38.7696 35.0849C38.7696 35.2336 38.7696 35.3638 38.751 35.4753C38.7324 35.5869 38.6952 35.717 38.6395 35.8843C38.2119 34.9362 37.5798 33.9509 36.7247 32.9285C35.7952 31.813 35.0516 31.2367 34.531 31.2367C34.4195 31.2367 34.308 31.3297 34.1778 31.5342C34.0663 31.7387 33.9362 31.8316 33.7688 31.8316C33.5643 31.8316 33.2297 31.7015 32.7836 31.4226C32.2258 31.088 31.7797 30.6976 31.4451 30.2515C30.9989 29.6566 30.7572 29.0245 30.7572 28.3367C30.7572 27.8533 30.9059 27.6116 31.222 27.6116C31.7797 27.6116 32.6348 27.9649 33.806 28.6527C35.1073 29.4335 36.2227 30.3258 37.0965 31.3669C38.2305 32.6496 38.7696 33.8766 38.7696 35.0849ZM43.5473 41.1082V39.1004H42.8409C42.655 39.1004 42.4691 38.9703 42.2832 38.6914C42.0043 38.2824 41.7998 37.5946 41.6511 36.6279C41.5396 35.8657 41.4094 34.8804 41.2793 33.6349C41.1678 32.631 41.0376 31.6829 40.9261 30.7906C40.7588 29.5079 40.5543 28.3181 40.3498 27.2212C40.2197 27.4815 40.0709 27.7975 39.9222 28.1694L39.5504 29.136C39.7177 29.8053 39.8478 30.4745 39.9408 31.1252C40.0337 31.7759 40.0895 32.4823 40.0895 33.2259C40.0895 34.7689 39.5876 36.126 38.5651 37.2414C37.7286 38.1895 36.483 39.0075 34.8657 39.7325C33.8618 40.1787 32.3374 40.7178 30.2739 41.3312V41.6659C32.8021 41.6659 34.6054 41.5357 35.665 41.2941C36.9106 40.9966 37.8587 40.4203 38.5465 39.528C39.1228 38.7658 39.7735 37.3715 40.4985 35.3266C40.4985 35.3824 40.5171 35.5125 40.5357 35.717C40.5543 35.9215 40.5729 36.0888 40.5729 36.2189C40.5729 37.9106 40.8145 39.1934 41.2793 40.0299C41.6697 40.7178 42.1902 41.071 42.8409 41.071H43.5473V41.1082ZM56.0028 41.1082H42.7479V39.1004H52.1174C51.3366 38.4869 50.686 38.0222 50.1468 37.6876C49.4776 37.26 48.8641 36.9625 48.325 36.758C47.7115 36.535 47.0794 36.442 46.4474 36.442C46.057 36.442 45.6666 36.4606 45.2576 36.5164C45.4807 35.9587 45.7781 35.4939 46.1313 35.1593C46.6519 34.6573 47.3025 34.4157 48.1019 34.4157C48.8827 34.4157 49.8122 34.8061 50.8719 35.5683C51.3924 35.9401 52.2661 36.6837 53.4559 37.7433C54.3854 38.5799 55.0175 39.0261 55.3335 39.1004H56.0214V41.1082H56.0028Z" fill="url(#paint1_radial_63_225)"/>
<path fill-rule="evenodd" clip-rule="evenodd" d="M29.7534 48.0981L28.8239 46.2391H29.9765L30.4413 47.3731L30.9246 46.2391H32.0772L31.1291 48.0981L32.1516 50.143H30.999L30.4413 48.8603L29.8835 50.143H28.731L29.7534 48.0981ZM34.81 46.2391H35.442L35.6837 47.1128C35.6093 47.1128 35.5164 47.1128 35.3863 47.1128C35.2561 47.1128 35.1446 47.1128 35.0888 47.1128C34.6798 47.1128 34.3638 47.1686 34.1407 47.2615C33.8433 47.3917 33.6202 47.6519 33.4901 48.0051H34.4753V47.2801H35.5164V50.1244H34.4753V48.8975H33.3785C33.3971 49.325 33.5272 49.734 33.7689 50.1244L32.9324 50.6635C32.5234 50.0315 32.3003 49.3808 32.3003 48.7302C32.3003 48.3583 32.3561 48.0051 32.4862 47.6705C32.8766 46.7224 33.6574 46.2391 34.81 46.2391ZM38.1562 50.1244V47.2615H39.1973V50.1244H38.1562ZM39.1415 46.2391H38.5094C37.7286 46.2391 37.1337 46.4621 36.6876 46.9083C36.2414 47.3545 36.0183 47.968 36.0183 48.7302C36.0183 49.3994 36.2228 50.0501 36.6504 50.6821L37.487 50.1058C37.3382 49.8642 37.2267 49.6225 37.1709 49.3808C37.1152 49.1577 37.0966 48.8975 37.0966 48.5814C37.0966 48.1167 37.2267 47.7635 37.5055 47.5032C37.7844 47.2429 38.1376 47.1128 38.6024 47.1128H39.4018L39.1415 46.2391ZM40.6101 48.4699C40.0524 48.1353 39.7736 47.7077 39.7736 47.2429C39.7736 46.9083 39.9037 46.648 40.1454 46.4807C40.3499 46.332 40.6473 46.2577 41.0005 46.2577H42.8224L43.064 47.1314H41.2236C41.0191 47.1314 40.9262 47.2058 40.9262 47.3731C40.9262 47.6147 41.2236 47.9122 41.8371 48.3026C41.4095 49.2507 40.9076 50.0501 40.3313 50.7193L39.4947 50.1058C39.8851 49.6411 40.2569 49.102 40.6101 48.4699ZM42.8781 47.2801H41.8371V50.1244H42.8781V47.2801ZM45.5551 50.1244V47.2615H46.5962V50.1244H45.5551ZM46.5218 46.2391H45.9083C45.1275 46.2391 44.5327 46.4621 44.0865 46.9083C43.6403 47.3545 43.4172 47.968 43.4172 48.7302C43.4172 49.3994 43.6217 50.0501 44.0493 50.6821L44.8859 50.1058C44.7372 49.8642 44.6256 49.6225 44.5698 49.3808C44.5141 49.1577 44.4955 48.8975 44.4955 48.5814C44.4955 48.1167 44.6256 47.7635 44.9045 47.5032C45.1833 47.2429 45.5365 47.1128 46.0013 47.1128H46.8007L46.5218 46.2391ZM47.284 50.1244V46.2391H48.3065V49.2507H49.0315C49.2174 49.2507 49.3104 49.1763 49.3104 49.0276C49.3104 48.7302 48.9757 48.4141 48.3251 48.0609L49.0315 47.4846C49.9982 48.0237 50.4629 48.5814 50.4629 49.1391C50.4629 49.5667 50.277 49.8642 49.9052 50.0129C49.6822 50.1058 49.3104 50.143 48.7898 50.143H47.284V50.1244Z" fill="url(#paint2_radial_63_225)"/>
<path fill-rule="evenodd" clip-rule="evenodd" d="M35.9813 21.4211V22.6481H37.0223V21.4211H38.0634V25.3065H37.0223V23.5404H35.9813V24.6558C35.9813 24.9718 35.9999 25.1949 36.037 25.3065L35.1261 25.8828C34.996 25.6783 34.9216 25.2879 34.9216 24.7302V21.4211H35.9813ZM41.6513 21.4211L41.893 22.2948H41.2795C40.8519 22.2948 40.5359 22.3506 40.3128 22.4436C40.0339 22.5737 39.8295 22.8154 39.6993 23.1686H40.6846V22.4436H41.7257V25.3065H40.6846V24.0981H39.5878C39.6064 24.5257 39.7365 24.9347 39.9782 25.325L39.1416 25.8642C38.7326 25.2321 38.5096 24.5814 38.5096 23.9308C38.5096 23.15 38.7326 22.5551 39.1788 22.1089C39.625 21.6628 40.2384 21.4397 41.0006 21.4397H41.6513V21.4211ZM42.4321 21.4211H43.4731V24.3584H44.8302L44.57 25.3065H42.4507V21.4211H42.4321ZM48.2322 21.4211L48.4739 22.2948H47.8604C47.4329 22.2948 47.1168 22.3506 46.8937 22.4436C46.6149 22.5737 46.4104 22.8154 46.2803 23.1686H47.2655V22.4436H48.3066V25.3065H47.2655V24.0981H46.1687C46.1873 24.5257 46.3174 24.9347 46.5591 25.325L45.7226 25.8642C45.3136 25.2321 45.0905 24.5814 45.0905 23.9308C45.0905 23.15 45.3136 22.5551 45.7597 22.1089C46.2059 21.6628 46.8194 21.4397 47.5816 21.4397H48.2322V21.4211ZM49.013 21.4211H50.0541V24.3584H51.4112L51.1509 25.3065H49.0316V21.4211H49.013Z" fill="url(#paint3_radial_63_225)"/>
<path fill-rule="evenodd" clip-rule="evenodd" d="M19.4732 13.2042L19.436 13.2414C19.343 13.3529 19.2501 13.4831 19.1757 13.5946C19.0084 13.8549 18.9712 13.9106 18.8225 14.1895C20.8117 8.81691 26.6304 6.00978 32.8953 7.58995L31.7055 9.35602C27.0022 7.66431 22.4476 9.41179 19.4732 13.2042Z" fill="white"/>
<path fill-rule="evenodd" clip-rule="evenodd" d="M8.18871 31.5714V31.6271C8.2073 31.7759 8.22589 31.9246 8.24448 32.0547C8.30025 32.3521 8.31884 32.4265 8.41179 32.724C6.01365 27.5373 8.13294 21.4211 13.6914 18.112L14.1004 20.1941C9.58298 22.3506 7.61241 26.7937 8.18871 31.5714Z" fill="white"/>
<path fill-rule="evenodd" clip-rule="evenodd" d="M13.1894 52.5597L13.2266 52.5969C13.3381 52.6899 13.4683 52.7828 13.5798 52.8572C13.8401 53.0245 13.8958 53.0617 14.1747 53.2104C8.80212 51.2212 5.97641 45.4211 7.57517 39.1376L9.34124 40.3273C7.66812 45.0307 9.39701 49.5667 13.1894 52.5597Z" fill="white"/>
<path fill-rule="evenodd" clip-rule="evenodd" d="M31.5939 63.844H31.6497C31.7984 63.8254 31.9471 63.8068 32.0772 63.7883C32.3747 63.7325 32.449 63.7139 32.7465 63.6209C27.5412 66.0191 21.4436 63.8998 18.116 58.3413L20.2167 57.9323C22.3545 62.4312 26.7976 64.4203 31.5939 63.844Z" fill="white"/>
<path fill-rule="evenodd" clip-rule="evenodd" d="M52.5823 58.8247L52.6195 58.7875C52.7124 58.6759 52.8054 58.5458 52.8798 58.4343C53.0471 58.174 53.0842 58.1182 53.233 57.8394C51.2438 63.212 45.4251 66.0191 39.1602 64.4389L40.3499 62.6728C45.0533 64.3646 49.5893 62.6171 52.5823 58.8247Z" fill="white"/>
<path fill-rule="evenodd" clip-rule="evenodd" d="M63.8665 40.4575V40.4017C63.8479 40.253 63.8293 40.1043 63.8108 39.9742C63.755 39.6767 63.7364 39.6023 63.6435 39.3049C66.0416 44.4916 63.9223 50.6078 58.3638 53.9168L57.9548 51.8347C62.4537 49.6783 64.4428 45.2352 63.8665 40.4575Z" fill="white"/>
<path fill-rule="evenodd" clip-rule="evenodd" d="M58.8471 19.4691L58.8099 19.4319C58.6984 19.339 58.5682 19.246 58.4567 19.1717C58.1964 19.0044 58.1407 18.9672 57.8618 18.8185C63.2344 20.8076 66.0601 26.6078 64.4614 32.8913L62.6953 31.7015C64.387 26.9982 62.6581 22.4436 58.8471 19.4691Z" fill="white"/>
<path fill-rule="evenodd" clip-rule="evenodd" d="M40.4614 8.18483H40.4057C40.2569 8.20342 40.1082 8.22201 39.9781 8.2406C39.6806 8.29638 39.6063 8.31497 39.3088 8.40792C44.5141 6.00978 50.6117 8.12906 53.9394 13.6875L51.8387 14.0965C49.7008 9.59769 45.2577 7.60854 40.4614 8.18483Z" fill="white"/>
<path fill-rule="evenodd" clip-rule="evenodd" d="M56.6722 62.6728L57.8248 63.1933L57.5459 63.3978L56.2632 62.9703L56.2446 61.6318L56.5235 61.4273L56.6722 62.6728ZM57.4344 62.1151L57.3043 60.851L57.0068 61.0741L57.044 62.4126L58.3081 62.8401L58.6056 62.6171L57.4344 62.1151Z" fill="#20631E"/>
<path fill-rule="evenodd" clip-rule="evenodd" d="M67.3428 49.5109L66.1344 49.6783L66.2646 49.3622L67.5101 49.0648L68.198 50.143L68.0678 50.459L67.3428 49.5109ZM67.0082 50.3289L67.7518 51.2956L67.8819 50.9796L67.1755 49.9199L65.9299 50.1988L65.7998 50.5148L67.0082 50.3289Z" fill="#20631E"/>
<path d="M3.68985 49.5853C1.79365 45.0679 0.882729 40.3088 0.95709 35.4195C1.29171 16.0857 17.3165 0.63721 36.6318 0.971834C55.9656 1.30646 71.4327 17.2941 71.0981 36.6093C71.0237 40.9223 70.1685 45.1422 68.5512 49.1391L68.105 48.9532C69.7038 45.0121 70.5404 40.8479 70.6147 36.6093C70.9307 17.5543 55.6868 1.77121 36.6132 1.45518C36.4087 1.45518 36.2228 1.45518 36.0183 1.45518C17.205 1.45518 1.75647 16.5876 1.44044 35.4381C1.36608 40.2716 2.25841 44.9563 4.13602 49.418L3.68985 49.5853Z" fill="#20631E"/>
<path d="M4.69373 49.1577C2.87188 44.8076 1.97955 40.1972 2.0725 35.4753C2.22122 26.4033 5.90209 17.9447 12.4273 11.6426C18.8037 5.47067 27.1693 2.10583 36.0183 2.10583C36.2228 2.10583 36.4087 2.10583 36.6132 2.10583C45.6852 2.25456 54.1623 5.93542 60.4644 12.4606C66.7665 18.9858 70.1685 27.5745 70.0012 36.6279C69.9269 40.7921 69.1089 44.8634 67.5473 48.7116L67.38 48.6372C68.923 44.8076 69.741 40.7549 69.8153 36.6093C69.9641 27.5931 66.5992 19.0415 60.3343 12.5721C54.0694 6.10274 45.6294 2.42187 36.6132 2.27315C36.4087 2.27315 36.2228 2.27315 36.0183 2.27315C27.2065 2.27315 18.8967 5.63798 12.5574 11.7542C6.0694 18.0191 2.40712 26.4405 2.2584 35.4567C2.18404 40.1601 3.05778 44.7333 4.87963 49.0648L4.69373 49.1577Z" fill="#20631E"/>
<path fill-rule="evenodd" clip-rule="evenodd" d="M5.62345 52.7271L5.73499 52.9501L5.19587 53.2104L5.02856 52.8758L5.28882 52.7456L4.13623 50.4033L7.20362 48.8975L7.37093 49.2321L4.61957 50.5892L5.49332 52.3738L8.24467 51.0167L8.41199 51.37L5.62345 52.7271ZM7.09208 54.3444L7.01772 54.3816C6.869 54.4745 6.75745 54.4745 6.6645 54.4188C6.57155 54.363 6.4786 54.2329 6.36706 54.0656L6.31129 53.9912C6.19975 53.8239 6.16257 53.6752 6.16257 53.5636C6.16257 53.4521 6.21834 53.3591 6.31129 53.2848C6.40424 53.2104 6.53437 53.1174 6.72027 52.9873L7.6126 54.4374L7.76133 54.3444C8.02159 54.1771 8.20749 54.0284 8.30044 53.8982C8.39339 53.7681 8.43058 53.6194 8.41199 53.4707C8.39339 53.3033 8.30044 53.0989 8.13313 52.8386C7.98441 52.5783 7.8171 52.411 7.66838 52.3367C7.51965 52.2623 7.35234 52.2623 7.18503 52.3181C7.01772 52.3738 6.79463 52.4854 6.53437 52.6527C6.32988 52.7642 6.18116 52.8758 6.08821 52.9873C5.97666 53.0803 5.9023 53.1918 5.86512 53.3033C5.82794 53.4149 5.82794 53.545 5.86512 53.6752C5.9023 53.8053 5.97666 53.9726 6.10679 54.1771C6.23693 54.3816 6.34847 54.5303 6.44142 54.6418C6.53437 54.7534 6.6645 54.8092 6.79464 54.8092C6.92477 54.8278 7.09208 54.772 7.27798 54.6418L7.09208 54.3444ZM7.66838 53.9912C7.85428 53.8796 7.98441 53.7867 8.04018 53.7123C8.11454 53.638 8.13313 53.545 8.11454 53.4521C8.09595 53.3591 8.04018 53.2104 7.92864 53.0431C7.83569 52.8944 7.74274 52.7828 7.64978 52.7271C7.55683 52.6713 7.46388 52.6527 7.35234 52.6713C7.2408 52.6899 7.11067 52.7642 6.94335 52.8572L7.66838 53.9912ZM8.87674 55.7201L9.65753 55.181L9.86202 55.4784L7.89146 56.8355L7.68696 56.5381L8.61648 55.906L7.89146 54.8463L6.96195 55.4784L6.75745 55.181L8.72802 53.8425L8.93251 54.1399L8.15172 54.679L8.87674 55.7201ZM9.99216 55.7015L8.17031 57.2259L8.39339 57.4862L9.43445 56.6124C9.63894 56.4451 9.80625 56.3707 9.97356 56.3707C10.1409 56.3707 10.2896 56.4637 10.4569 56.6496C10.5685 56.7797 10.6242 56.8727 10.6428 56.947C10.6614 57.0214 10.6614 57.0958 10.6242 57.1701C10.587 57.2445 10.5127 57.3188 10.4011 57.4304L9.19277 58.4343L9.43445 58.7131L10.5499 57.7836C10.68 57.6721 10.7915 57.5977 10.8845 57.5791C10.996 57.5419 11.1076 57.5605 11.2191 57.6349C11.3307 57.7092 11.4236 57.7836 11.5166 57.8951C11.6467 58.0624 11.7025 58.1926 11.7025 58.2855C11.7025 58.3971 11.6095 58.5086 11.4608 58.6387L10.2338 59.6612L10.4569 59.9401L11.6653 58.9362C11.814 58.8061 11.9255 58.6759 11.9813 58.5458C12.0371 58.4157 12.0557 58.3041 12.0185 58.1554C11.9813 58.0253 11.8884 57.8765 11.7582 57.7092C11.5166 57.4118 11.2377 57.3002 10.9403 57.356C11.089 57.1329 11.0146 56.8541 10.7544 56.5195C10.5127 56.222 10.2524 56.1105 9.95498 56.1848L10.2338 55.9618L9.99216 55.7015ZM12.2788 58.3785L12.5204 58.6202L12.2973 58.8246C12.4461 58.7875 12.5948 58.8061 12.7063 58.8618C12.8179 58.9176 12.948 58.992 13.0781 59.1221C13.264 59.308 13.3942 59.4939 13.4313 59.6612C13.4685 59.8285 13.4313 59.9772 13.357 60.126C13.264 60.2747 13.1339 60.4606 12.9294 60.6465C12.7807 60.7952 12.6506 60.9253 12.539 60.9997C12.4275 61.0927 12.3159 61.1484 12.1858 61.1856C12.0743 61.2228 11.9441 61.2042 11.814 61.167C11.6839 61.1298 11.5537 61.0183 11.405 60.8882C11.2749 60.758 11.1819 60.6465 11.1262 60.5164C11.0704 60.3862 11.0518 60.2561 11.0704 60.1074L10.1409 61.0369L9.8992 60.7952L12.2788 58.3785ZM11.7582 59.4195C11.907 59.2522 12.0371 59.1593 12.1486 59.0849C12.2416 59.0291 12.3531 59.0106 12.4647 59.0291C12.5762 59.0477 12.7063 59.1407 12.8365 59.2894C12.9852 59.4381 13.0595 59.5497 13.0781 59.6612C13.0967 59.7727 13.0781 59.8657 13.0224 59.9772C12.9666 60.0702 12.8551 60.2003 12.6877 60.3676L12.5948 60.4606C12.4461 60.6093 12.3159 60.7209 12.223 60.7766C12.13 60.8324 12.0185 60.8696 11.907 60.8324C11.7954 60.8138 11.6653 60.7209 11.5166 60.5907C11.3864 60.4606 11.3121 60.3305 11.2749 60.2189C11.2563 60.1074 11.2749 59.9958 11.3307 59.9029C11.3864 59.8099 11.4794 59.6798 11.6281 59.5497L11.7582 59.4195ZM14.8256 60.7952L13.3198 62.6356L13.5987 62.8587L14.5282 61.7247C14.807 61.3715 15.1417 61.3343 15.5135 61.6318C15.6436 61.7433 15.7179 61.8363 15.7737 61.9106C15.8109 61.985 15.8295 62.0779 15.7923 62.1523C15.7551 62.2267 15.6994 62.3382 15.5878 62.4683L14.6025 63.6767L14.8814 63.8998L15.8853 62.6728C16.0154 62.5055 16.1083 62.3568 16.1455 62.2267C16.1827 62.0965 16.1641 61.9664 16.1083 61.8549C16.0526 61.7433 15.9224 61.6132 15.7551 61.4645C15.6064 61.3529 15.4763 61.26 15.3276 61.2228C15.1974 61.1856 15.0487 61.1856 14.8814 61.2414L15.0859 60.9997L14.8256 60.7952ZM15.7923 62.9889C15.9596 62.7472 16.1269 62.5799 16.2571 62.4869C16.3872 62.3754 16.5545 62.3382 16.7032 62.3568C16.8705 62.3754 17.0564 62.4683 17.2981 62.6356C17.5398 62.8215 17.7071 62.9889 17.8001 63.119C17.893 63.2677 17.9116 63.4164 17.8558 63.5838C17.8001 63.7511 17.6885 63.9556 17.5026 64.1972C17.3167 64.4575 17.1494 64.6434 17.0193 64.7735C16.8891 64.8851 16.7404 64.9594 16.5545 64.9594C16.3686 64.9594 16.1641 64.8665 15.9224 64.6806C15.6808 64.5133 15.5135 64.3459 15.4205 64.2158C15.3276 64.0857 15.2904 63.9184 15.3276 63.7697C15.3647 63.6023 15.4763 63.3979 15.6436 63.1748L15.7923 62.9889ZM15.9782 63.3793L16.1455 63.1562C16.2942 62.9703 16.4058 62.8401 16.4987 62.7658C16.5917 62.6914 16.6846 62.6728 16.7776 62.71C16.8705 62.7286 17.0193 62.803 17.1866 62.9331L17.2423 62.9703C17.3911 63.0818 17.484 63.1748 17.5212 63.2677C17.5584 63.3607 17.5584 63.4536 17.5026 63.5466C17.4468 63.6395 17.3539 63.7882 17.2238 63.9741C17.075 64.16 16.9821 64.3088 16.8891 64.4017C16.7962 64.5133 16.7032 64.5876 16.6289 64.6062C16.5545 64.6434 16.4616 64.6248 16.3686 64.6062C16.2757 64.569 16.1827 64.5133 16.0526 64.4203L15.9224 64.3088C15.7737 64.1972 15.6808 64.0857 15.6808 63.9927C15.6622 63.8812 15.7551 63.6581 15.9782 63.3793ZM19.3988 64.8851L19.0828 64.7178C19.2315 64.4575 19.3802 64.3274 19.5475 64.3274C19.7149 64.3274 19.9565 64.4017 20.2354 64.5504C20.4585 64.662 20.6072 64.7735 20.7187 64.8851C20.8303 64.9966 20.886 65.1082 20.9046 65.2569C20.9232 65.4056 20.8674 65.5729 20.7559 65.796L20.0309 67.1717L19.7334 67.0044L19.8636 66.7999C19.7334 66.8556 19.6033 66.8742 19.4732 66.8556C19.343 66.837 19.1943 66.7627 19.027 66.6883C18.8411 66.5954 18.6924 66.4838 18.5994 66.3909C18.5065 66.2979 18.4507 66.1864 18.4321 66.0563C18.4135 65.9261 18.4693 65.7774 18.5623 65.5915C18.6552 65.4242 18.7667 65.2941 18.8783 65.2383C18.9898 65.1825 19.12 65.1639 19.2501 65.2011C19.3802 65.2383 19.5475 65.294 19.7149 65.387C19.8822 65.4799 20.0123 65.5543 20.1052 65.6473C20.1982 65.7216 20.254 65.8332 20.2726 65.9633L20.4027 65.7216C20.4956 65.5543 20.5514 65.4056 20.57 65.3126C20.5886 65.2197 20.5514 65.1267 20.4956 65.071C20.4213 64.9966 20.3097 64.9222 20.1238 64.8293C19.9193 64.7178 19.7706 64.6806 19.6777 64.6992C19.5847 64.6992 19.5289 64.7735 19.4546 64.8851C19.4546 64.8851 19.436 64.9037 19.436 64.9222C19.3988 64.8479 19.3988 64.8665 19.3988 64.8851ZM18.8783 65.6659C18.7853 65.8332 18.7482 65.9819 18.7853 66.0748C18.8225 66.1678 18.9341 66.2607 19.12 66.3723C19.2501 66.4467 19.3802 66.5024 19.4732 66.5396C19.5661 66.5768 19.6777 66.5768 19.7706 66.5582C19.8636 66.5396 19.9565 66.4652 20.0123 66.3351C20.1052 66.1678 20.1052 66.0377 20.0495 65.9261C19.9751 65.8332 19.845 65.7216 19.6591 65.6287L19.5847 65.5915C19.3616 65.4614 19.1943 65.4242 19.0828 65.4428C19.027 65.4614 18.9527 65.5357 18.8783 65.6659ZM23.0053 65.9261L22.6707 65.7774L21.2764 67.4691L21.4995 65.2383L21.1649 65.0896L20.9232 67.6178L21.0348 67.6736C20.9232 67.8037 20.8303 67.9153 20.7745 67.9896C20.7001 68.064 20.6258 68.1198 20.5328 68.1569C20.4399 68.1941 20.3469 68.1941 20.2354 68.1569C20.2354 68.1569 20.2168 68.1384 20.1982 68.1384C20.1796 68.1198 20.161 68.1198 20.161 68.1198L20.0309 68.38C20.0867 68.4358 20.1424 68.473 20.1982 68.4916C20.3841 68.5845 20.57 68.5659 20.7745 68.4358C20.979 68.3243 21.1649 68.1569 21.295 67.971L23.0053 65.9261ZM24.9945 66.7441L24.0278 69.0865C23.9348 69.3095 23.8233 69.4583 23.7118 69.5512C23.6002 69.6442 23.4515 69.6813 23.3028 69.6628C23.154 69.6442 22.9495 69.5884 22.7265 69.4954C22.522 69.4025 22.3733 69.3281 22.2617 69.2538C22.1502 69.1794 22.0944 69.0679 22.0758 68.9377C22.0572 68.8076 22.0944 68.6403 22.1688 68.4358L22.4848 68.5659C22.429 68.6961 22.4104 68.8076 22.429 68.882C22.429 68.9563 22.4662 69.0307 22.522 69.0679C22.5777 69.1236 22.6707 69.1608 22.8008 69.2166C22.9681 69.291 23.0983 69.3281 23.2098 69.3467C23.3214 69.3653 23.4143 69.3467 23.4887 69.2909C23.563 69.2352 23.6374 69.1236 23.7118 68.9749L23.8977 68.5288C23.7861 68.6217 23.656 68.6589 23.5259 68.6589C23.3957 68.6403 23.2284 68.6031 23.0611 68.5288C22.838 68.4358 22.6707 68.3243 22.5777 68.1941C22.4848 68.064 22.4476 67.9153 22.4662 67.748C22.4848 67.5807 22.5406 67.3762 22.6335 67.1531C22.7265 66.9486 22.8008 66.7813 22.8752 66.6511C22.9496 66.521 23.0425 66.4095 23.1355 66.3351C23.247 66.2607 23.3585 66.205 23.5073 66.205C23.656 66.205 23.8233 66.2421 24.0278 66.3165C24.1951 66.3909 24.3252 66.4652 24.4182 66.5582C24.5111 66.6511 24.5669 66.7627 24.6041 66.93L24.7156 66.6325L24.9945 66.7441ZM22.9681 67.1903L23.0425 67.0044C23.1169 66.8184 23.1912 66.6883 23.2656 66.614C23.3399 66.5396 23.4329 66.4838 23.5259 66.4838C23.6188 66.4838 23.7675 66.521 23.9348 66.5768C24.1207 66.6511 24.2509 66.7441 24.3252 66.8556C24.381 66.9672 24.3996 67.0601 24.381 67.1903C24.3624 67.3018 24.3066 67.4691 24.2137 67.6922C24.1579 67.8223 24.1021 67.9525 24.0464 68.064C23.9534 68.2313 23.8419 68.3243 23.7118 68.3614C23.5816 68.3986 23.4329 68.3614 23.247 68.2871C23.0611 68.2127 22.931 68.1198 22.8566 68.0268C22.8008 67.9339 22.7637 67.8223 22.8008 67.7294C22.8194 67.6178 22.8752 67.4691 22.9496 67.2646L22.9681 67.1903ZM26.8349 67.3018L26.4817 67.1903L26.0727 68.5288C26.0169 68.7147 25.9612 68.8448 25.8868 68.9191C25.8124 69.0121 25.7381 69.0493 25.6265 69.0679C25.515 69.0865 25.3663 69.0679 25.199 69.0121C25.0502 68.9749 24.9573 68.9191 24.9015 68.8634C24.8458 68.8076 24.8086 68.7518 24.79 68.6589C24.79 68.5845 24.8086 68.473 24.8458 68.3243L25.3105 66.8184L24.9573 66.7069L24.4925 68.2127C24.4182 68.4916 24.4182 68.7147 24.4925 68.882C24.5855 69.0493 24.7528 69.1794 25.0317 69.2538C25.2362 69.3095 25.3849 69.3467 25.515 69.3281C25.6451 69.3281 25.7753 69.2724 25.9054 69.1608L25.8124 69.4583L26.1285 69.5512L26.8349 67.3018ZM26.9093 67.339L27.2439 67.4133L27.1509 67.7666C27.3368 67.5435 27.6157 67.4877 27.9875 67.5807C28.3965 67.6922 28.6196 67.8781 28.6382 68.1384C28.8612 67.9153 29.1401 67.8595 29.5119 67.9339C29.7164 67.9896 29.8651 68.0454 29.9767 68.1384C30.0882 68.2313 30.144 68.3243 30.1812 68.473C30.1997 68.6031 30.1997 68.7704 30.144 68.9749L29.7536 70.4993L29.4004 70.4064L29.7908 68.8448C29.8465 68.6403 29.8279 68.5102 29.7722 68.4172C29.7164 68.3243 29.5863 68.2499 29.3818 68.2127C29.2516 68.1755 29.1215 68.1755 28.9914 68.1755C28.8612 68.1941 28.7683 68.2313 28.6939 68.3243C28.6382 68.3986 28.5824 68.5288 28.5452 68.6961L28.192 70.1089L27.8388 70.016L28.2106 68.4916C28.2478 68.3428 28.2478 68.2313 28.2478 68.1569C28.2478 68.0826 28.2106 68.0082 28.1362 67.971C28.0619 67.9153 27.9689 67.8781 27.8016 67.8409C27.5599 67.7851 27.374 67.8037 27.2439 67.8967C27.1138 67.9896 27.0208 68.157 26.965 68.4172L26.6304 69.7371L26.2958 69.6628L26.9093 67.339ZM32.2819 68.4172L31.9286 68.3614L31.0921 70.3878L30.6645 68.1941L30.2927 68.1384L30.8132 70.6109L30.9434 70.6294C30.869 70.7968 30.8132 70.9083 30.776 71.0013C30.7389 71.0942 30.6645 71.1686 30.5901 71.2243C30.5158 71.2987 30.4228 71.3173 30.3113 71.2987C30.3113 71.2987 30.2927 71.2987 30.2741 71.2801C30.2555 71.2801 30.2369 71.2615 30.2369 71.2615L30.1997 71.5404C30.2741 71.5776 30.3299 71.5961 30.3856 71.5961C30.5901 71.6333 30.7575 71.559 30.9248 71.3731C31.0921 71.2057 31.2036 71.0013 31.2966 70.7782L32.2819 68.4172ZM35.7025 68.6217L35.6095 71.0013L35.2749 70.9827L35.2935 70.6666C35.1819 70.7968 35.0704 70.8897 34.9588 70.9269C34.8287 70.9641 34.68 70.9827 34.4755 70.9641C34.1966 70.9455 33.9922 70.8711 33.862 70.741C33.7319 70.6109 33.6761 70.3878 33.6947 70.1089L33.7691 68.5288L34.1409 68.5473L34.0665 70.1275C34.0665 70.2762 34.0665 70.3878 34.1037 70.4621C34.1223 70.5365 34.1781 70.5923 34.2524 70.6294C34.3268 70.6666 34.4383 70.6852 34.587 70.6852C34.7729 70.6852 34.9217 70.6852 35.0332 70.6294C35.1447 70.5923 35.2005 70.5179 35.2563 70.425C35.2935 70.332 35.3307 70.1833 35.3307 69.9974L35.3864 68.6031L35.7025 68.6217ZM37.4685 68.5845L37.5243 69.5512H37.673L38.4724 68.5473L38.9186 68.5288L37.9705 69.6814L39.2346 70.8897L38.7698 70.9083L37.6916 69.8115H37.5429L37.6172 70.9641L37.264 70.9827L37.1153 68.6031L37.4685 68.5845ZM39.2718 69.5884C39.2346 69.3095 39.2346 69.0679 39.2718 68.9006C39.309 68.7332 39.3833 68.6031 39.5135 68.5102C39.6436 68.4172 39.8667 68.3429 40.1455 68.3243C40.443 68.2871 40.6846 68.3057 40.8519 68.3429C41.0193 68.3986 41.1308 68.4916 41.2052 68.6403C41.2795 68.789 41.3353 69.0307 41.3725 69.3281C41.4097 69.6442 41.4097 69.9044 41.4097 70.0717C41.3911 70.2391 41.3167 70.3878 41.1866 70.5179C41.0564 70.6295 40.8334 70.7224 40.5359 70.741C40.2385 70.7782 40.0154 70.7782 39.8481 70.7224C39.6808 70.6852 39.5692 70.5923 39.4763 70.4435C39.3833 70.2948 39.3276 70.0717 39.309 69.7929L39.2718 69.5884ZM39.6622 69.7557C39.6994 70.1275 39.7737 70.3506 39.8853 70.4435C39.9596 70.4993 40.0898 70.5179 40.2757 70.4993L40.443 70.4807C40.5917 70.4621 40.7032 70.4435 40.7962 70.4064C40.8891 70.3692 40.9449 70.3134 40.9821 70.2391C41.0193 70.1647 41.0379 70.0532 41.0379 69.9044C41.0379 69.7743 41.0193 69.5884 40.9821 69.3653C40.9635 69.1422 40.9263 68.9749 40.8891 68.8634C40.852 68.7518 40.7962 68.6775 40.7032 68.6403C40.6103 68.6031 40.4801 68.5845 40.2942 68.6031H40.2199C40.0154 68.6217 39.8481 68.6589 39.7737 68.7147C39.6808 68.7704 39.625 68.8448 39.6064 68.9563C39.5878 69.0679 39.5878 69.2352 39.625 69.4769L39.6622 69.7557ZM43.027 68.8262L41.7629 69.105L41.5584 68.1941L41.2052 68.2685L41.7071 70.5923L42.0603 70.5179L41.8186 69.4211L43.0828 69.1608L43.3245 70.2576L43.6777 70.1833L43.1757 67.8409L42.8411 67.9153L43.027 68.8262ZM43.436 67.8781L43.7706 67.7666L43.8822 68.1012C43.9193 67.8223 44.1424 67.6178 44.4956 67.4877C44.9046 67.3576 45.1835 67.3947 45.3508 67.6178C45.4252 67.3204 45.6296 67.1159 46.0014 66.9858C46.2059 66.93 46.3733 66.8928 46.5034 66.9114C46.6335 66.93 46.7636 66.9858 46.838 67.0787C46.931 67.1717 47.0053 67.3204 47.0611 67.5249L47.5444 69.0307L47.1912 69.1422L46.7079 67.6178C46.6521 67.4319 46.5592 67.3018 46.4662 67.2646C46.3733 67.2088 46.2245 67.2274 46.02 67.2832C45.8899 67.3204 45.7784 67.3762 45.6668 67.4691C45.5739 67.5435 45.4995 67.6364 45.4995 67.748C45.4995 67.8409 45.5181 67.9711 45.5739 68.1384L46.02 69.5326L45.6668 69.6442L45.1835 68.1384C45.1277 67.9896 45.0719 67.8967 45.0348 67.8223C44.979 67.7666 44.9232 67.7294 44.8489 67.7108C44.7745 67.7108 44.6444 67.7294 44.4956 67.7666C44.254 67.8409 44.1052 67.9525 44.0495 68.1012C43.9937 68.2499 43.9937 68.4544 44.0681 68.6961L44.477 69.9974L44.1424 70.1089L43.436 67.8781ZM46.8938 66.7627L48.0836 69.9602L48.3996 69.8301L47.9348 68.6031C48.0464 68.6961 48.1765 68.7332 48.3252 68.7332C48.4554 68.7332 48.6227 68.6961 48.79 68.6217C48.9759 68.5473 49.1246 68.473 49.2176 68.3614C49.3105 68.2685 49.3663 68.1569 49.3849 68.0268C49.4035 67.8967 49.4035 67.7851 49.3663 67.6364C49.3291 67.5063 49.2733 67.339 49.199 67.1345C49.106 66.8742 48.9945 66.6697 48.9015 66.521C48.8086 66.3723 48.6784 66.2793 48.5111 66.2422C48.3438 66.205 48.1393 66.2422 47.8791 66.3351C47.7118 66.3909 47.5816 66.4652 47.4887 66.5582C47.3957 66.6511 47.3214 66.7627 47.2842 66.9114L47.1912 66.614L46.8938 66.7627ZM47.6188 67.6922L47.6746 67.8595C47.7489 68.0454 47.8047 68.1755 47.8791 68.2685C47.9534 68.3614 48.0464 68.4172 48.1579 68.4544C48.2695 68.473 48.4182 68.4544 48.5855 68.3986C48.7714 68.3243 48.9015 68.2499 48.9759 68.1569C49.0502 68.064 49.0688 67.971 49.0502 67.8409C49.0317 67.7294 48.9945 67.5621 48.9201 67.3762L48.8643 67.246C48.79 67.0415 48.7156 66.8742 48.6599 66.7813C48.6041 66.6883 48.5111 66.614 48.3996 66.5954C48.288 66.5768 48.1393 66.5954 47.9534 66.6697C47.7675 66.7441 47.6374 66.8184 47.563 66.9114C47.4887 67.0044 47.4701 67.0973 47.4887 67.2089C47.4887 67.3204 47.5444 67.4877 47.6188 67.6922ZM49.2919 67.0787C49.1618 66.8185 49.0874 66.614 49.0688 66.4281C49.0502 66.2607 49.0688 66.112 49.1618 65.9633C49.2547 65.8332 49.4406 65.703 49.6823 65.5729C49.9612 65.4428 50.1842 65.3684 50.3516 65.3498C50.5189 65.3312 50.6676 65.387 50.7791 65.5171C50.9093 65.6287 51.0208 65.8332 51.1695 66.112C51.3183 66.4095 51.4112 66.6326 51.4484 66.7999C51.5042 66.9672 51.4856 67.1345 51.3926 67.2832C51.3183 67.4319 51.1324 67.5807 50.8535 67.7294C50.5932 67.8595 50.3702 67.9339 50.2028 67.9525C50.0355 67.9711 49.8868 67.9339 49.7567 67.8223C49.6265 67.7108 49.4964 67.5249 49.3663 67.2646L49.2919 67.0787ZM49.7009 67.0973L49.5708 66.8556C49.4592 66.6511 49.4035 66.4838 49.3849 66.3723C49.3663 66.2607 49.3849 66.1678 49.4592 66.0934C49.5336 66.0191 49.6637 65.9261 49.8496 65.8332L49.924 65.796C50.0913 65.7216 50.2214 65.6845 50.333 65.6845C50.4259 65.703 50.5189 65.7402 50.5746 65.8332C50.6304 65.9261 50.7234 66.0748 50.8163 66.2793C50.9279 66.4838 51.0022 66.6511 51.058 66.7627C51.1138 66.8928 51.1324 67.0044 51.1138 67.0973C51.0952 67.1903 51.058 67.2646 50.9836 67.3204C50.9093 67.3762 50.8163 67.4505 50.6676 67.5063L50.5189 67.5807C50.3516 67.655 50.2214 67.6922 50.1285 67.655C50.0169 67.6178 49.8682 67.4319 49.7009 67.0973ZM53.735 66.205L51.8946 64.5133L51.4484 64.7549L51.9131 67.2089L52.2292 67.0415L51.8016 64.8665L53.4004 66.3909L53.735 66.205ZM53.5863 65.0338L54.2183 65.9633L53.9209 66.1678L52.5638 64.1972L52.8612 63.9927L53.4004 64.7735L53.7722 64.5133C53.642 64.3088 53.5677 64.1229 53.5305 63.9741C53.4933 63.8254 53.5305 63.6767 53.6049 63.5466C53.6792 63.4164 53.8279 63.2677 54.051 63.119C54.2369 62.9889 54.4042 62.8959 54.5344 62.8401C54.6645 62.7844 54.7946 62.7844 54.9062 62.803C55.0177 62.8216 55.1293 62.8959 55.2222 62.9889C55.3337 63.0818 55.4453 63.2305 55.5754 63.435C55.7241 63.6395 55.8171 63.8068 55.8915 63.937C55.9658 64.0671 56.003 64.1786 56.0216 64.3088C56.0402 64.4389 56.003 64.569 55.9286 64.6992C55.8543 64.8293 55.7241 64.9594 55.5197 65.0896C55.3338 65.2197 55.185 65.3126 55.0549 65.3684C54.9248 65.4242 54.7946 65.4428 54.6831 65.4242C54.5716 65.4056 54.46 65.3498 54.3485 65.2569C54.2369 65.1639 54.1254 65.0152 53.9953 64.8293L53.9395 64.7549L53.5863 65.0338ZM54.144 64.4017L54.2927 64.6248C54.4972 64.9222 54.6645 65.0896 54.8132 65.1267C54.9062 65.1453 55.0363 65.0896 55.2036 64.978L55.3338 64.8851C55.4639 64.7921 55.5568 64.7178 55.6126 64.6434C55.6684 64.569 55.7056 64.4947 55.7056 64.4017C55.7056 64.3088 55.6684 64.1972 55.594 64.0857C55.5011 63.937 55.4081 63.7696 55.2966 63.6209C55.2036 63.4722 55.1107 63.3793 55.0549 63.3049C54.9991 63.2305 54.9248 63.1748 54.869 63.1562C54.8132 63.119 54.7203 63.119 54.6459 63.1376C54.553 63.1562 54.46 63.2119 54.3299 63.2863L54.2741 63.3235C54.1068 63.4536 53.9767 63.5466 53.9209 63.6395C53.8651 63.7325 53.8651 63.8254 53.8837 63.9184C53.9395 64.0485 54.0138 64.1972 54.144 64.4017ZM58.68 58.081L58.996 60.0144L61.0409 60.5164L60.7063 60.8138L58.8845 60.3676L59.1633 62.2267L58.8287 62.5427L58.5313 60.4234L56.5979 59.9772L56.9511 59.6612L58.6428 60.0888L58.364 58.3785L58.68 58.081ZM60.223 58.899C60.2044 58.899 60.2044 58.8804 60.1858 58.8804C60.1672 58.8804 60.1672 58.8618 60.1486 58.8618C60.0557 58.7875 60.0185 58.6945 60.0185 58.6016C60.0185 58.5086 60.0929 58.3599 60.2602 58.1926C60.3903 58.0439 60.5018 57.9323 60.5948 57.8951C60.6877 57.8394 60.7621 57.8394 60.855 57.8765C60.948 57.9137 61.0595 57.9881 61.2083 58.1368L61.4128 58.3227C61.2826 58.3041 61.1711 58.3413 61.0595 58.4157C60.9666 58.49 60.8365 58.6016 60.7249 58.7317C60.5948 58.8804 60.4832 59.0291 60.4275 59.1407C60.3717 59.2708 60.3531 59.3824 60.3717 59.5125C60.3903 59.6426 60.4832 59.7728 60.632 59.9029C60.7807 60.0516 60.9294 60.126 61.0595 60.1446C61.1897 60.1631 61.3198 60.1446 61.4313 60.0702C61.5429 59.9958 61.673 59.8843 61.8217 59.717C61.9519 59.5683 62.0448 59.4381 62.1006 59.3266C62.1564 59.215 62.175 59.0663 62.1378 58.9362L62.3051 59.1221L62.5282 58.8618L61.3756 57.8208C61.1897 57.6535 61.0409 57.5605 60.8922 57.5419C60.7435 57.5233 60.6134 57.5419 60.4832 57.6349C60.3531 57.7092 60.2044 57.858 60.0557 58.0253C59.8326 58.2669 59.7025 58.4714 59.6653 58.6387C59.6281 58.8061 59.721 58.992 59.9441 59.1965L60.223 58.899ZM60.8736 59.5868C61.0224 59.717 61.1525 59.7728 61.2454 59.7728C61.357 59.7542 61.4685 59.6798 61.5987 59.5311C61.7102 59.4195 61.7846 59.308 61.8403 59.215C61.8961 59.1221 61.9333 59.0291 61.9333 58.9362C61.9333 58.8246 61.8961 58.7317 61.7846 58.6387C61.6358 58.5086 61.5057 58.4714 61.3942 58.5086C61.2826 58.5458 61.1525 58.6573 61.0038 58.8246L60.948 58.899C60.7807 59.0849 60.6877 59.2336 60.6877 59.3452C60.7063 59.4009 60.7621 59.4753 60.8736 59.5868ZM63.9968 57.0772L63.7551 57.3746L61.7102 56.5381L62.9186 58.3971L62.6955 58.6759L61.3384 56.5752L61.6544 56.1848L63.9968 57.0772ZM63.2346 53.9912L62.5653 54.9951C62.4538 55.1624 62.3795 55.3111 62.3609 55.4412C62.3423 55.5528 62.3795 55.6643 62.4538 55.7758C62.5282 55.8688 62.6583 55.9803 62.8442 56.1105C62.9372 56.1662 63.0301 56.2034 63.1045 56.1848C63.1974 56.1848 63.2904 56.1477 63.4205 56.1105C63.3833 56.1662 63.3833 56.2592 63.4391 56.3521C63.4949 56.4451 63.5506 56.5195 63.625 56.5752H63.6436L64.1269 56.9284L64.3314 56.631L63.7923 56.2592C63.7551 56.2406 63.7365 56.1848 63.7179 56.1105C63.6994 56.0361 63.7179 55.9803 63.7551 55.906L64.2757 55.1252L65.0007 55.6085L65.2052 55.3111L63.2346 53.9912ZM63.2532 54.4374L64.034 54.9579L63.6994 55.4412C63.6808 55.4598 63.6622 55.497 63.6436 55.5342C63.625 55.5714 63.6064 55.6085 63.6064 55.6085C63.4205 55.8874 63.216 55.9246 62.9557 55.7758C62.9557 55.7758 62.9557 55.7758 62.9372 55.7573L62.9186 55.7387C62.7513 55.6271 62.6583 55.5342 62.6583 55.4412C62.6583 55.3669 62.6955 55.2553 62.807 55.1066L63.2532 54.4374ZM66.3949 53.3963L66.1904 53.7309L64.0526 53.2104L65.5212 54.8835L65.3353 55.181L63.6994 53.2848L63.9596 52.8572L66.3949 53.3963ZM66.618 53.0059L67.1757 51.9834C67.2873 51.7975 67.3245 51.6302 67.343 51.5187C67.343 51.3886 67.3059 51.277 67.2315 51.1841C67.1386 51.0911 67.0084 50.9982 66.8225 50.8866C66.6366 50.7937 66.4507 50.7751 66.302 50.8308C66.1347 50.8866 66.0045 50.9982 65.893 51.1841L65.4654 51.9834L64.7032 51.5745L64.5359 51.8905L66.618 53.0059ZM66.8039 52.0764L66.5437 52.5597L65.7257 52.1136L66.0417 51.5001C66.1533 51.2956 66.2462 51.1841 66.3578 51.1469C66.4507 51.1097 66.5808 51.1283 66.711 51.2026L66.7482 51.2212C66.9341 51.3142 67.027 51.4071 67.027 51.5001C67.0456 51.593 67.0084 51.686 66.9527 51.8161C66.9341 51.8347 66.9155 51.8719 66.8969 51.9091C66.8783 51.9463 66.8597 51.9834 66.8411 51.9834L66.8039 52.0764Z" fill="#20631E"/>
<path d="M19.4916 68.0268C16.1454 66.2979 13.0966 64.0671 10.4568 61.3901L10.7914 61.0555C13.4126 63.6953 16.4057 65.8889 19.7147 67.5992L19.4916 68.0268Z" fill="#20631E"/>
<path d="M29.549 71.466C27.7086 71.1314 25.8681 70.6481 24.1021 70.016L24.2508 69.5698C25.9983 70.1833 27.8015 70.6667 29.6233 71.0013L29.549 71.466Z" fill="#20631E"/>
<path d="M36.0369 72.0423C34.5496 72.0423 33.0438 71.9494 31.5752 71.7635L31.631 71.2987C33.081 71.4846 34.5682 71.5776 36.0369 71.5776C39.978 71.5776 43.8633 70.9269 47.5814 69.6442L47.7301 70.0904C43.9563 71.3917 40.0338 72.0423 36.0369 72.0423Z" fill="#20631E"/>
<defs>
<radialGradient id="paint0_radial_63_225" cx="0" cy="0" r="1" gradientUnits="userSpaceOnUse" gradientTransform="translate(36.0258 36.0142) scale(44.0937)">
<stop stop-color="#C5C6C6"/>
<stop offset="0.51" stop-color="#6F6F6E"/>
<stop offset="0.68" stop-color="#2B6F3C"/>
<stop offset="1" stop-color="#0A6021"/>
</radialGradient>
<radialGradient id="paint1_radial_63_225" cx="0" cy="0" r="1" gradientUnits="userSpaceOnUse" gradientTransform="translate(37.1629 35.2645) scale(20.8986)">
<stop stop-color="#2E3B31"/>
<stop offset="0.163" stop-color="#2D3B32"/>
<stop offset="0.294" stop-color="#2D3C36"/>
<stop offset="0.4139" stop-color="#2D3F3C"/>
<stop offset="0.5272" stop-color="#2B4247"/>
<stop offset="0.6359" stop-color="#274655"/>
<stop offset="0.741" stop-color="#224B67"/>
<stop offset="0.8434" stop-color="#17527F"/>
<stop offset="0.941" stop-color="#005A99"/>
<stop offset="1" stop-color="#0060AC"/>
</radialGradient>
<radialGradient id="paint2_radial_63_225" cx="0" cy="0" r="1" gradientUnits="userSpaceOnUse" gradientTransform="translate(39.6028 48.4689) scale(11.0886 11.0886)">
<stop stop-color="#2E3B31"/>
<stop offset="0.163" stop-color="#2D3B32"/>
<stop offset="0.294" stop-color="#2D3C36"/>
<stop offset="0.4139" stop-color="#2D3F3C"/>
<stop offset="0.5272" stop-color="#2B4247"/>
<stop offset="0.6359" stop-color="#274655"/>
<stop offset="0.741" stop-color="#224B67"/>
<stop offset="0.8434" stop-color="#17527F"/>
<stop offset="0.941" stop-color="#005A99"/>
<stop offset="1" stop-color="#0060AC"/>
</radialGradient>
<radialGradient id="paint3_radial_63_225" cx="0" cy="0" r="1" gradientUnits="userSpaceOnUse" gradientTransform="translate(43.1663 23.6639) scale(8.53984)">
<stop stop-color="#2E3B31"/>
<stop offset="0.163" stop-color="#2D3B32"/>
<stop offset="0.294" stop-color="#2D3C36"/>
<stop offset="0.4139" stop-color="#2D3F3C"/>
<stop offset="0.5272" stop-color="#2B4247"/>
<stop offset="0.6359" stop-color="#274655"/>
<stop offset="0.741" stop-color="#224B67"/>
<stop offset="0.8434" stop-color="#17527F"/>
<stop offset="0.941" stop-color="#005A99"/>
<stop offset="1" stop-color="#0060AC"/>
</radialGradient>
</defs>
</svg>
