<svg width="76" height="73" viewBox="0 0 76 73" fill="none" xmlns="http://www.w3.org/2000/svg">
<circle cx="36" cy="36" r="36" fill="white"/>
<path d="M6.40139 41.7375C6.11041 41.7375 5.96493 41.592 5.67396 41.592C5.38299 41.592 5.2375 41.4466 4.94653 41.4466L0.290973 40.2827L0 38.3913L0.72743 38.2459L0.872919 38.9733L6.98333 37.9549L6.83785 37.2275L7.56528 37.082L8.00173 39.4097L7.2743 39.5552L7.12882 38.8278L1.74583 39.7007L2.90972 39.9917C3.20069 40.1372 3.49166 40.1372 3.78263 40.2827C4.07361 40.4281 4.36459 40.4282 4.65556 40.5736C5.09202 40.7191 5.52847 40.7191 5.96492 40.8646C6.40138 41.0101 6.83784 41.0101 7.2743 41.1556L7.41979 42.174C6.83784 42.6104 6.11042 43.0469 5.52847 43.4834C4.94653 43.9198 4.21909 44.3563 3.63715 44.7927C3.49166 44.9382 3.34619 44.9382 3.2007 45.0837C3.05521 45.2292 2.90972 45.2292 2.76424 45.3747L8.14721 44.5018L7.85625 43.7743L8.58368 43.6288L9.02014 45.9566L8.29271 46.1021L8.14721 45.3747L2.03681 46.3931L2.18229 47.1205L1.45486 47.266L1.16389 45.3747C1.45486 45.2292 1.60035 45.0837 1.89132 44.7927C2.18229 44.6472 2.47326 44.3563 2.90972 44.2108C3.20069 43.9198 3.63716 43.7743 3.92813 43.4834C4.2191 43.1924 4.65555 43.0469 4.94653 42.7559C5.2375 42.6104 5.52847 42.465 5.67396 42.3195C5.96493 42.174 6.11041 42.0285 6.40139 41.7375Z" fill="#4B5863"/>
<path d="M8.14723 31.699L7.4198 31.5535L7.5653 30.8261L1.45488 29.9531L1.01842 33.4448L7.12884 34.3177L7.27432 33.5903L8.00175 33.7358L7.71078 36.0636L6.98335 35.9181L7.12884 35.1906L1.01842 34.3177L0.872938 35.0452L0.145508 34.8997L1.01842 28.0618L1.74585 28.2073L1.60037 28.9347L7.71078 29.8077L7.85627 29.0802L8.5837 29.2257L8.14723 31.699Z" fill="#4B5863"/>
<path d="M8.7292 26.607L9.02017 26.0251L9.60211 26.316L8.7292 28.3528L8.14725 28.0619L8.43823 27.4799L2.76427 25.1521L2.4733 25.7341L1.89136 25.4431L2.76427 23.2608L3.34622 23.5518L3.05524 24.1337L8.7292 26.607ZM10.1841 23.1153L10.6205 22.2424L11.2025 22.3879C11.2025 22.5334 11.2025 22.6789 11.2025 22.8244C11.2025 22.9699 11.057 23.1153 11.057 23.2608C11.057 23.4063 10.9115 23.5518 10.766 23.6973C10.6205 23.8428 10.475 23.8428 10.3295 23.8428L6.11045 24.8612L5.81948 24.7157L3.92816 21.3695C3.78268 21.224 3.78267 21.0785 3.78267 20.9331C3.78267 20.7876 3.78268 20.6421 3.92816 20.4966C4.07365 20.2056 4.21913 19.9147 4.5101 19.7692L4.94656 20.0601L4.65559 20.9331L6.40142 23.9883L10.1841 23.1153Z" fill="#4B5863"/>
<path d="M16.5854 10.6035C17.0218 11.04 17.3128 11.4764 17.4583 11.9129C17.6038 12.3494 17.7493 12.7858 17.7493 13.3678C17.7493 13.8042 17.6038 14.3862 17.4583 14.8226C17.3128 15.2591 16.8764 15.6955 16.4399 16.132C16.0034 16.5684 15.567 16.8594 14.985 17.1504C14.5486 17.2959 13.9666 17.4414 13.5302 17.4414C13.0937 17.4414 12.6573 17.2959 12.2208 17.0049C11.7843 16.7139 11.3479 16.423 10.9114 15.9865C10.475 15.55 10.184 15.1136 10.0385 14.6771C9.74754 14.2407 9.74754 13.8042 9.60205 13.2223C9.60205 12.7858 9.60206 12.2039 9.89303 11.7674C10.0385 11.3309 10.475 10.749 10.9114 10.3125C11.3479 9.87609 11.9298 9.58512 12.3663 9.29414C12.8027 9.14866 13.3847 9.00317 13.8211 9.00317C14.2576 9.00317 14.6941 9.14866 15.1305 9.43963C15.858 9.87609 16.1489 10.1671 16.5854 10.6035ZM14.985 12.2039C14.6941 11.9129 14.5486 11.7674 14.2576 11.6219C13.9666 11.4764 13.8212 11.331 13.5302 11.1855C13.2392 11.04 13.0937 11.04 12.8027 11.1855C12.5118 11.1855 12.3663 11.3309 12.0753 11.6219C11.7843 11.7674 11.7843 12.0584 11.6389 12.3494C11.6389 12.6403 11.6389 12.7858 11.6389 13.0768C11.6389 13.3678 11.7843 13.5132 12.0753 13.8042C12.2208 14.0952 12.5118 14.2407 12.6573 14.5316C12.9482 14.8226 13.2392 15.1136 13.3847 15.2591C13.6757 15.4046 13.8212 15.55 14.1121 15.6955C14.4031 15.6955 14.5486 15.6955 14.8396 15.6955C15.1305 15.6955 15.276 15.55 15.4215 15.2591C15.567 15.1136 15.7125 14.8226 15.858 14.6771C15.858 14.3862 15.858 14.2407 15.858 13.9497C15.858 13.6587 15.7125 13.5132 15.567 13.2223C15.4215 12.7858 15.276 12.4948 14.985 12.2039Z" fill="#4B5863"/>
<path d="M23.5688 4.92956L22.2595 5.65699L21.9685 4.92956L20.0772 5.94797L20.8046 7.25734L21.9685 6.6754C22.2594 6.52991 22.6959 6.38443 22.9869 6.23894C23.2779 6.09345 23.7143 6.09345 24.0053 6.09345C24.2963 6.09345 24.5872 6.23894 24.8782 6.38442C25.1692 6.52991 25.4601 6.82088 25.6056 7.25734C25.7511 7.54831 25.8966 7.98477 25.8966 8.27574C25.8966 8.56672 25.8966 8.85769 25.7511 9.14866C25.6056 9.43963 25.4601 9.7306 25.1692 9.87609C24.8782 10.1671 24.5872 10.3125 24.2963 10.458L20.2226 12.4948L19.6407 11.3309L20.3681 11.04L18.1858 6.6754L17.4584 6.96637L16.8765 5.80248L22.6959 2.89276L23.5688 4.92956ZM21.241 8.27574L22.114 10.1671L23.1324 9.7306C23.4233 9.58512 23.5688 9.43963 23.5688 9.14866C23.5688 8.85769 23.5688 8.56672 23.4233 8.27574C23.2778 7.98477 23.1324 7.83928 22.8414 7.6938C22.5504 7.54831 22.4049 7.6938 22.114 7.83928L21.241 8.27574Z" fill="#4B5863"/>
<path d="M32.4434 8.27576L32.298 6.96638L33.0254 6.8209L32.5889 4.92958L29.9702 5.36604L30.2611 7.25735L30.9886 7.11187L31.1341 8.42124L27.4969 9.00319L27.3514 7.69381L28.2243 7.54833L27.4969 2.74729L26.624 2.89277L26.4785 1.5834L30.1157 1.00146L30.2611 2.31083L29.5337 2.45632L29.8247 4.20215L32.4434 3.76569L32.1525 2.01986L31.425 2.16534L31.2795 0.710484L34.9167 0.12854L35.0622 1.43791L34.3348 1.5834L35.0622 6.38444L35.7896 6.23895L35.9351 7.54833L32.4434 8.27576Z" fill="#4B5863"/>
<path d="M43.3548 1.00142L46.992 1.58336L46.701 2.89274L45.8281 2.74725L44.9552 7.54829L45.8281 7.69377L45.6826 9.14863L42.1909 8.56669L42.4819 7.25732L43.2093 7.4028L43.7913 4.49308C43.2093 4.78405 42.6274 5.22051 42.1909 5.51148C41.609 5.80246 41.027 6.23891 40.5906 6.52989V6.82086L41.318 6.96634L41.027 8.27572L37.3899 7.69377L37.6809 6.3844L38.5538 6.52989L39.4267 1.72885L38.5538 1.58336L38.8448 0.273987L42.4819 0.855932L41.7545 2.16531L41.027 2.01982L40.5906 4.92954L43.9368 2.89274V2.60176L43.2093 2.45628L43.3548 1.00142Z" fill="#4B5863"/>
<path d="M50.92 11.9129L51.6474 10.749L52.2294 11.04L53.1023 9.29413L50.7745 7.98475L49.9016 9.73058L50.4835 10.0216L49.7561 11.1854L46.5554 9.43961L47.2829 8.27572L48.0103 8.71218L50.3381 4.3476L49.6106 3.91114L50.3381 2.74725L53.5388 4.49309L52.8113 5.65697L52.2294 5.366L51.3565 6.82086L53.6842 8.13024L54.5572 6.67538L53.9752 6.3844L54.7026 5.22052L57.9033 6.96635L57.1759 8.13024L56.4485 7.69378L54.1207 12.0584L54.8481 12.4948L54.1207 13.6587L50.92 11.9129Z" fill="#4B5863"/>
<path d="M59.2129 13.5132C58.9219 13.8042 58.6309 14.0952 58.4855 14.3861C58.34 14.6771 58.1945 14.9681 58.1945 15.1136C58.1945 15.4045 58.1945 15.55 58.34 15.841C58.4854 16.132 58.6309 16.2774 58.9219 16.5684C58.9219 16.5684 59.0674 16.7139 59.2129 16.8594C59.3584 17.0049 59.5039 17.0049 59.5039 17.1504C59.6493 17.2958 59.7948 17.2959 59.9403 17.4413C60.0858 17.5868 60.2313 17.5868 60.3768 17.7323L59.5039 18.8962C59.3584 18.7507 59.2129 18.7507 58.9219 18.6052C58.6309 18.4597 58.4854 18.3143 58.34 18.1688C58.1945 18.0233 58.049 17.8778 57.758 17.7323C57.6125 17.5868 57.4671 17.4413 57.3216 17.2958C56.7396 16.7139 56.4487 16.2774 56.3032 15.6955C56.1577 15.259 56.0122 14.6771 56.1577 14.2406C56.1577 13.8042 56.4486 13.3677 56.5941 12.9313C56.8851 12.4948 57.1761 12.2038 57.6125 11.7674C57.9035 11.4764 58.34 11.1854 58.7764 10.8945C59.2129 10.6035 59.6493 10.458 60.0858 10.458C60.5223 10.458 61.1042 10.458 61.5407 10.749C62.1226 10.8945 62.5591 11.3309 63.141 11.9129C63.432 12.2038 63.7229 12.4948 63.8684 12.7858C64.0139 13.0768 64.3049 13.3677 64.4504 13.6587L62.7045 15.4045L61.6861 14.3861L62.5591 13.6587C62.5591 13.5132 62.4136 13.5132 62.4136 13.3677C62.4136 13.2222 62.2681 13.2222 62.2681 13.0768C61.9771 12.7858 61.8316 12.6403 61.5407 12.6403C61.2497 12.4948 61.1042 12.4948 60.8132 12.6403C60.5223 12.6403 60.3768 12.7858 60.0858 12.9313C59.6493 13.0768 59.5039 13.2222 59.2129 13.5132Z" fill="#4B5863"/>
<path d="M62.5589 21.9514L62.8499 22.6788L61.686 23.2608L59.9402 20.0601L61.1041 19.4781L61.5405 20.2056L65.9051 17.8778L65.4686 17.1504L66.6325 16.5684L68.3784 19.7691L67.2145 20.3511L66.9235 19.6236L62.5589 21.9514ZM64.4503 25.4431L64.8867 26.4615L63.8683 27.0434C63.7228 26.8979 63.7228 26.8979 63.5773 26.7524C63.4318 26.607 63.4318 26.607 63.2864 26.4615C63.1409 26.316 63.1409 26.316 63.1409 26.1705C63.1409 26.025 62.9954 26.025 62.9954 25.8795C62.8499 25.5886 62.7044 25.2976 62.7044 25.0066C62.7044 24.7156 62.7044 24.5702 62.8499 24.2792L64.5957 21.0785L65.1777 20.7875L68.5239 21.0785C68.8148 21.0785 69.1058 21.224 69.2513 21.3695C69.3968 21.5149 69.5423 21.6604 69.6877 21.9514C69.9787 22.3879 69.9787 22.8243 69.9787 23.4063L68.9603 23.8427L68.3784 22.9698L65.7596 22.5333L64.4503 25.4431Z" fill="#4B5863"/>
<path d="M72.3067 31.699L72.8886 35.3361L71.5792 35.4816L71.4337 34.6087L66.6327 35.3361L66.7782 36.209L65.4688 36.3545L64.8869 32.7174L66.1962 32.5719L66.3417 33.2993L69.2514 32.8629C68.6695 32.4264 68.233 31.9899 67.6511 31.699C67.2146 31.2625 66.6327 30.8261 66.1962 30.5351H65.9053L66.0507 31.2625L64.7414 31.408L64.1594 27.7708L65.4688 27.6254L65.6143 28.4983L70.4153 27.7708L70.2698 26.8979L71.5792 26.7524L72.1612 30.3896L70.8518 30.5351L70.7063 29.8076L67.7966 30.2441L70.8518 32.7174H71.1428L70.9973 31.9899L72.3067 31.699Z" fill="#4B5863"/>
<path d="M72.0156 43.9198L71.2882 47.557L69.9788 47.266L70.1243 46.3931L65.3233 45.5201L65.1778 46.3931L63.8684 46.1021L64.4504 42.6104L65.7597 42.9014L65.6142 43.6288L68.524 44.2108C68.233 43.6288 67.7965 43.0469 67.5056 42.6104C67.2146 42.0285 66.7781 41.4465 66.4872 41.0101H66.1962L66.0507 41.7375L64.7413 41.4465L65.4688 37.8094L66.7781 38.1004L66.6326 38.9733L71.4337 39.8462L71.5792 38.9733L72.8885 39.2642L72.1611 42.9014L70.8517 42.6104L70.9972 41.883L68.0875 41.3011L70.1243 44.6472H70.4153L70.5608 43.9198H72.0156ZM72.8885 43.3379C72.8885 43.0469 73.034 42.9014 73.1795 42.7559C73.325 42.6104 73.4705 42.4649 73.616 42.174C73.7615 42.0285 74.0524 41.883 74.1979 41.7375C74.3434 41.592 74.6344 41.4465 74.9253 41.4465L75.3618 42.3195C74.9253 42.4649 74.6344 42.7559 74.4889 43.0469C74.3434 43.3379 74.1979 43.4833 74.1979 43.6288C74.1979 43.6288 74.1979 43.7743 74.1979 43.9198C74.1979 44.0653 74.1979 44.0653 74.1979 44.2108C74.1979 44.3563 74.3434 44.5017 74.3434 44.7927C74.4889 44.9382 74.6344 45.2292 74.7799 45.5201L74.1979 45.9566C73.9069 45.6656 73.7615 45.5201 73.616 45.2292C73.4705 44.9382 73.325 44.7927 73.1795 44.5017C73.034 44.2108 73.034 44.0653 73.034 43.9198C72.7431 43.6288 72.7431 43.4833 72.8885 43.3379Z" fill="#4B5863"/>
<path d="M7.41983 54.8313C8.29275 54.2494 9.16567 54.3949 9.8931 55.2678C10.475 56.1407 10.3296 57.1591 9.60212 57.741C8.7292 58.323 7.85629 58.1775 7.12886 57.3046C6.54692 56.4317 6.6924 55.4133 7.41983 54.8313ZM9.02019 57.1591C9.60213 56.7226 9.60212 56.1407 9.31115 55.7042C9.02018 55.2678 8.43824 55.1223 7.85629 55.5587C7.27435 55.9952 7.27435 56.5771 7.56533 57.0136C8.00178 57.3046 8.58373 57.4501 9.02019 57.1591Z" fill="#4B5863"/>
<path d="M9.89298 58.1775C10.6204 57.4501 11.6388 57.5956 12.3662 58.323C12.8027 58.7594 12.9482 59.3414 12.8027 59.9233L12.0753 59.7778C12.2208 59.4869 12.0753 59.0504 11.9298 58.9049C11.4933 58.4685 10.9114 58.4685 10.4749 58.9049C10.0385 59.3414 10.0385 59.9233 10.3294 60.3598C10.6204 60.6508 10.9114 60.7962 11.2024 60.6508L11.3478 61.3782C10.7659 61.5237 10.3294 61.3782 9.89298 60.7962C9.16555 59.9233 9.16555 58.9049 9.89298 58.1775Z" fill="#4B5863"/>
<path d="M13.6757 59.9233L14.2576 60.3598L13.3847 61.3782L14.6941 62.5421L15.567 61.5237L16.149 62.1056L13.9667 64.5789L13.3847 63.9969L14.2576 62.9785L12.9483 61.8146L12.0754 62.833L11.4934 62.2511L13.6757 59.9233Z" fill="#4B5863"/>
<path d="M15.7124 63.8514C16.2944 62.9785 17.3128 62.833 18.1857 63.415C19.0586 63.9969 19.2041 65.0153 18.7677 65.7427C18.1857 66.6157 17.1673 66.7611 16.2944 66.1792C15.4215 65.5973 15.276 64.5789 15.7124 63.8514ZM18.0402 65.3063C18.3312 64.7243 18.3312 64.1424 17.7493 63.8514C17.3128 63.5605 16.7309 63.7059 16.2944 64.1424C16.0034 64.7243 16.0034 65.3063 16.5854 65.5973C17.1673 66.0337 17.7493 65.8882 18.0402 65.3063Z" fill="#4B5863"/>
<path d="M21.823 68.216C21.5321 68.7979 20.9501 68.7979 20.2227 68.3615L18.7678 67.634L20.2227 64.7243L21.6775 65.4517C22.405 65.8882 22.6959 66.3247 22.405 66.7611C22.2595 67.0521 21.9685 67.1976 21.6775 67.1976C21.9685 67.634 21.9685 67.925 21.823 68.216ZM21.2411 67.925C21.3866 67.634 21.2411 67.4885 20.9501 67.1976L20.0772 66.7611L19.6407 67.4885L20.3682 67.925C20.8046 68.0705 21.0956 68.0705 21.2411 67.925ZM20.2227 66.3246L20.9501 66.7611C21.2411 66.9066 21.5321 66.9066 21.6775 66.6156C21.823 66.3246 21.6775 66.1792 21.3866 66.0337L20.6591 65.5972L20.2227 66.3246Z" fill="#4B5863"/>
<path d="M25.751 68.6525L25.0235 70.5438L24.2961 70.2528L24.4416 69.8164C24.1506 69.9618 23.7142 70.1073 23.2777 69.8164C22.5503 69.5254 22.2593 68.9434 22.4048 68.507C22.5503 67.925 23.1322 67.7796 24.0051 68.0705L24.878 68.3615C25.0235 67.925 24.878 67.6341 24.2961 67.3431C24.0051 67.1976 23.5687 67.1976 23.2777 67.3431L23.1322 66.7612C23.5687 66.6157 24.1506 66.6157 24.5871 66.9066C25.6055 67.1976 26.0419 67.7796 25.751 68.6525ZM24.5871 69.2344L24.7326 68.9434L24.0051 68.6525C23.5687 68.507 23.2777 68.6525 23.2777 68.798C23.1322 69.0889 23.2777 69.3799 23.7142 69.3799C24.0051 69.5254 24.4416 69.5254 24.5871 69.2344Z" fill="#4B5863"/>
<path d="M27.0604 67.634L27.7879 67.7795L27.4969 69.0889L29.0972 69.5254L29.3882 68.216L30.1157 68.3615L29.3882 71.5622L28.6608 71.4167L28.9518 70.1073L27.3514 69.6708L27.0604 70.9802L26.333 70.8347L27.0604 67.634Z" fill="#4B5863"/>
<path d="M35.6441 71.4167C35.6441 71.9986 35.2076 72.2896 34.1892 72.2896L32.5889 72.1441L32.8798 68.7979L34.4802 68.9434C35.3531 68.9434 35.7896 69.3799 35.6441 69.8163C35.6441 70.1073 35.3531 70.3983 35.0621 70.5438C35.4986 70.6893 35.6441 70.9802 35.6441 71.4167ZM34.9166 71.2712C34.9166 70.9802 34.7712 70.8347 34.3347 70.8347H33.4618V71.7077H34.3347C34.6257 71.7077 34.9166 71.5622 34.9166 71.2712ZM33.4618 70.2528H34.3347C34.7712 70.2528 34.9166 70.1073 34.9166 69.8163C34.9166 69.5254 34.7712 69.3799 34.3347 69.3799H33.4618V70.2528Z" fill="#4B5863"/>
<path d="M41.3181 71.2712V71.9987L38.1174 72.2896V71.7077L39.7177 69.9618C40.1542 69.5254 40.1542 69.2344 40.1542 69.0889C40.1542 68.6525 39.8632 68.507 39.2813 68.507C38.8448 68.507 38.5538 68.6525 38.2629 69.0889L37.6809 68.6525C37.9719 68.216 38.5538 67.7796 39.2813 67.7796C40.1542 67.6341 40.8816 68.0705 40.8816 68.9434C40.8816 69.3799 40.8816 69.8164 40.2997 70.3983L39.2813 71.5622L41.3181 71.2712Z" fill="#4B5863"/>
<path d="M41.7546 69.8164C41.4636 68.3615 42.0456 67.4886 43.064 67.1976C44.0824 67.0521 44.9553 67.6341 45.2462 68.9435C45.5372 70.3983 44.9553 71.2712 43.9369 71.5622C42.9185 71.8532 42.0456 71.1258 41.7546 69.8164ZM44.5188 69.2344C44.2278 68.216 43.7914 67.7796 43.2095 67.9251C42.6275 68.0706 42.3365 68.6525 42.6275 69.6709C42.9185 70.6893 43.3549 71.1258 43.9369 70.9803C44.3733 70.8348 44.6643 70.2528 44.5188 69.2344Z" fill="#4B5863"/>
<path d="M45.9737 68.7979C45.5372 67.4886 45.9737 66.4702 46.9921 66.0337C48.0105 65.7427 49.0289 66.1792 49.4654 67.4886C49.9018 68.7979 49.4654 69.8163 48.447 70.2528C47.4286 70.6893 46.4102 70.2528 45.9737 68.7979ZM48.5925 67.925C48.3015 66.9066 47.7195 66.6156 47.1376 66.7611C46.5557 66.9066 46.4102 67.4886 46.7011 68.507C46.9921 69.5254 47.574 69.8163 48.156 69.6709C48.7379 69.5254 48.8834 68.9434 48.5925 67.925Z" fill="#4B5863"/>
<path d="M49.9016 67.3431C49.3197 66.0337 49.6107 65.0154 50.4836 64.5789C51.3565 64.1424 52.5204 64.4334 53.1023 65.7428C53.6843 67.0522 53.3933 68.0706 52.5204 68.507C51.6475 69.089 50.4836 68.6525 49.9016 67.3431ZM52.3749 66.1792C51.9384 65.3063 51.3565 65.0154 50.7746 65.3063C50.1926 65.5973 50.0471 66.1792 50.6291 67.0521C51.0655 67.9251 51.6475 68.216 52.2294 67.9251C52.8114 67.6341 52.9568 67.0522 52.3749 66.1792Z" fill="#4B5863"/>
<path d="M57.1759 62.542L55.7211 63.5604L57.3214 65.7427L56.7395 66.1792L54.8481 63.5604L56.8849 62.1056L57.1759 62.542Z" fill="#4B5863"/>
<path d="M57.9035 63.124C57.1761 62.3965 57.3216 61.3781 58.049 60.6507C58.7765 59.9233 59.7949 60.0688 60.5223 60.7962C61.2497 61.5236 61.1042 62.542 60.3768 63.2695C59.6494 63.9969 58.631 63.8514 57.9035 63.124ZM59.9404 61.3781C59.5039 60.9417 58.9219 60.9417 58.4855 61.2326C58.049 61.6691 58.049 62.251 58.4855 62.6875C58.9219 63.124 59.5039 63.124 59.9404 62.833C60.3768 62.3965 60.3768 61.8146 59.9404 61.3781Z" fill="#4B5863"/>
<path d="M64.3048 58.1774L65.3232 59.0503L64.8867 59.6323L64.3048 59.1958L62.559 61.0871L63.1409 61.5236L62.7045 62.1055L61.6861 61.2326L61.8315 61.0871C62.1225 60.7962 61.6861 60.2142 61.1041 59.6323L60.2312 58.9048L61.977 56.868L64.0138 58.6139L64.3048 58.1774ZM62.268 60.3597L63.2864 59.1958L61.8315 57.8864L60.9586 58.9048L61.3951 59.3413C61.977 59.6323 62.268 60.0687 62.268 60.3597Z" fill="#4B5863"/>
<path d="M64.4504 53.3764L66.4872 56.7226C66.9237 57.45 66.9237 57.8865 66.6327 58.3229C66.4872 58.6139 66.1962 58.7594 65.9053 58.9049L65.6143 58.3229C65.7598 58.3229 66.0507 58.1774 66.1962 58.032C66.3417 57.741 66.3417 57.5955 66.1962 57.3045L66.0507 57.159L62.5591 56.4316L62.9955 55.7042L65.6143 56.2861L64.1594 54.1038L64.4504 53.3764Z" fill="#4B5863"/>
<path d="M29.8247 49.7393C29.8247 49.7393 25.751 48.2845 24.2962 47.9935C19.4951 46.9751 22.1139 41.4466 25.4601 43.9199C28.3698 46.1022 29.8247 49.7393 29.8247 49.7393Z" fill="#00AA4F"/>
<path d="M51.0654 54.1039C51.0654 54.1039 51.9384 50.0303 51.9384 48.43C52.0838 43.4834 58.0488 45.2293 56.3029 48.8664C54.5571 52.0671 51.0654 54.1039 51.0654 54.1039Z" fill="#F7323F"/>
<path d="M23.714 49.8848C23.714 49.8848 20.5133 50.0303 19.3494 50.3212C15.7123 51.1941 15.8577 46.1021 18.913 46.8296C21.6772 47.557 23.714 49.8848 23.714 49.8848Z" fill="#F7323F"/>
<path d="M18.1857 43.3379C18.1857 43.3379 16.5854 44.3563 16.1489 44.7928C14.5485 46.2476 13.0937 43.6289 14.8395 43.0469C16.4399 42.756 18.1857 43.3379 18.1857 43.3379Z" fill="#00AA4F"/>
<path d="M22.5502 23.2609C22.5502 23.2609 20.0769 23.8428 19.3495 24.2793C16.7307 25.4431 16.1488 21.9515 18.4766 21.9515C20.5134 21.9515 22.5502 23.2609 22.5502 23.2609Z" fill="#F7323F"/>
<path d="M47.5737 21.224C47.5737 21.224 48.3012 19.0417 48.4466 18.3143C48.8831 15.6956 51.6473 16.8594 50.6289 18.7508C49.465 20.3511 47.5737 21.224 47.5737 21.224Z" fill="#00AA4F"/>
<path d="M19.3496 33.5904C19.3496 33.5904 16.2944 32.863 15.276 32.863C11.7843 32.572 13.0937 28.3529 15.7124 29.8078C18.0402 30.9716 19.3496 33.5904 19.3496 33.5904Z" fill="#00AA4F"/>
<path d="M52.9568 31.8445C52.9568 31.8445 55.8665 31.2625 56.8849 31.1171C60.3766 30.8261 59.2127 27.1889 56.5939 28.3528C54.4116 29.5167 52.9568 31.8445 52.9568 31.8445Z" fill="#F7323F"/>
<path d="M27.4967 23.6973C27.4967 23.6973 25.8964 20.3511 25.4599 19.1872C24.1505 15.1136 19.7859 17.7324 22.1137 20.4966C24.1505 22.6789 27.4967 23.6973 27.4967 23.6973Z" fill="#00AA4F"/>
<path d="M34.1892 18.8963C34.1892 18.8963 33.8982 16.132 33.7527 15.1136C33.0253 11.9129 36.9534 11.9129 36.5169 14.5317C36.0805 16.8594 34.1892 18.8963 34.1892 18.8963Z" fill="#F7323F"/>
<path d="M46.1191 25.8796C46.1191 25.8796 44.9552 23.5518 44.5187 22.8244C42.7729 20.4966 46.1191 19.1872 46.5555 21.515C46.8465 23.6973 46.1191 25.8796 46.1191 25.8796Z" fill="#F7323F"/>
<path d="M57.1759 44.0653C57.1759 44.0653 57.3214 41.4466 57.1759 40.5737C56.885 37.5185 60.2311 37.9549 59.5037 40.4282C58.9218 42.6105 57.1759 44.0653 57.1759 44.0653Z" fill="#00AA4F"/>
<path d="M27.3512 36.9365C27.3512 36.9365 23.8596 32.2809 22.2592 30.8261C17.3127 26.1705 24.587 21.6605 26.7693 26.898C28.5151 31.408 27.3512 36.9365 27.3512 36.9365Z" fill="#FF5000"/>
<path d="M23.5686 40.1373C23.5686 40.1373 19.0585 40.1373 17.6037 40.4282C12.5117 41.3011 12.9481 35.0452 17.1672 36.0636C20.6589 37.082 23.5686 40.1373 23.5686 40.1373Z" fill="#FF5000"/>
<path d="M31.7158 22.9699C31.7158 22.9699 29.2425 19.6237 28.0786 18.6053C24.587 15.2591 29.679 12.0584 31.2793 15.8411C32.4432 19.0418 31.7158 22.9699 31.7158 22.9699Z" fill="#FF5000"/>
<path d="M32.4433 59.3414C32.4433 59.3414 29.6791 54.9768 28.9516 53.231C26.7693 47.557 19.495 52.7945 23.4232 56.1407C26.9148 58.9049 32.4433 59.3414 32.4433 59.3414Z" fill="#FF5000"/>
<path d="M36.3713 47.557C36.3713 47.557 39.1355 42.756 40.4449 41.1556C44.664 36.2091 37.0987 32.572 35.6438 37.8095C34.7709 42.6105 36.3713 47.557 36.3713 47.557Z" fill="#00AA4F"/>
<path d="M48.3014 33.5903C48.3014 33.5903 52.375 28.9348 53.9753 27.4799C59.3583 22.8244 52.6659 18.0233 49.9017 23.2608C47.7194 28.0619 48.3014 33.5903 48.3014 33.5903Z" fill="#00AA4F"/>
<path d="M34.771 23.1154C34.771 23.1154 40.154 20.4966 42.1908 19.9147C48.7377 17.8779 44.6641 11.04 40.2995 14.6772C36.5168 17.8779 34.771 23.1154 34.771 23.1154Z" fill="#00AA4F"/>
<path d="M47.7192 43.6289C47.7192 43.6289 49.756 38.8278 50.338 37.082C51.7928 31.2626 58.7762 34.8997 55.5755 38.8278C52.6658 42.174 47.7192 43.6289 47.7192 43.6289Z" fill="#FF5000"/>
<path d="M39.863 58.7594C39.863 58.7594 44.5186 57.45 46.2644 57.3046C51.9384 56.7226 49.3196 49.7393 45.246 52.0671C41.8998 54.3948 39.863 58.7594 39.863 58.7594Z" fill="#00AA4F"/>
<path d="M33.7526 33.7359C33.7526 33.7359 37.2443 30.0987 38.6992 29.0803C43.3547 25.5886 37.9717 21.3695 35.644 25.4432C33.4617 29.2258 33.7526 33.7359 33.7526 33.7359Z" fill="#F7323F"/>
<path d="M44.2276 36.6456C44.2276 36.6456 45.246 32.281 45.9734 30.8262C48.1557 26.1706 41.0269 25.0067 41.1724 29.2258C41.6088 33.0085 44.2276 36.6456 44.2276 36.6456Z" fill="#FF5000"/>
<path d="M44.8095 45.6657C48.0102 39.9917 47.1373 34.4633 47.1373 34.4633C47.1373 34.4633 46.2644 41.0101 42.3363 44.9383C39.1356 47.9935 37.0988 52.5035 36.5168 53.8129C27.3512 34.1723 34.0436 20.6421 34.0436 20.6421C34.0436 20.6421 29.5335 27.189 29.388 34.8997C29.388 36.9365 29.388 38.9733 29.5335 40.8646C28.6606 40.4282 27.3512 39.7008 25.7509 38.2459C21.3863 34.6087 18.4766 27.3344 18.4766 27.3344C18.4766 27.3344 17.7491 33.5903 30.1154 45.8112C31.1338 53.3764 33.1706 59.3414 34.771 63.124C36.0804 63.124 37.9717 63.124 39.1356 63.124C38.2627 59.3414 39.2811 54.8313 40.445 52.2126C43.6456 45.9567 50.047 49.0119 52.9567 43.7744C51.6474 44.7928 50.047 46.3931 44.8095 45.6657Z" fill="#4B5863"/>
</svg>
