<svg width="30" height="30" viewBox="0 0 30 30" fill="none" xmlns="http://www.w3.org/2000/svg">
<path d="M10.3916 16.6182C10.2858 17.5915 9.93669 18.3363 9.34424 18.8525C8.75602 19.3688 7.97103 19.627 6.98926 19.627C6.30371 19.627 5.69645 19.4556 5.16748 19.1128C4.64274 18.77 4.23649 18.2855 3.94873 17.6592C3.66097 17.0286 3.51497 16.3092 3.51074 15.501V14.3013C3.51074 13.4803 3.65462 12.7524 3.94238 12.1177C4.23014 11.4829 4.64274 10.9941 5.18018 10.6514C5.72184 10.3044 6.34391 10.1309 7.04639 10.1309C8.03662 10.1309 8.81738 10.3996 9.38867 10.937C9.96419 11.4702 10.2985 12.2087 10.3916 13.1523H9.60449C9.40983 11.5824 8.55713 10.7974 7.04639 10.7974C6.2085 10.7974 5.53988 11.1105 5.04053 11.7368C4.54541 12.3631 4.29785 13.2285 4.29785 14.333V15.4629C4.29785 16.5293 4.53906 17.3799 5.02148 18.0146C5.50814 18.6494 6.16406 18.9668 6.98926 18.9668C7.80599 18.9668 8.42171 18.7721 8.83643 18.3828C9.25114 17.9893 9.50716 17.401 9.60449 16.6182H10.3916ZM18.3706 10.9243H15.2031V19.5H14.4224V10.9243H11.2612V10.2578H18.3706V10.9243ZM26.521 15.3804C26.521 16.231 26.3729 16.9779 26.0767 17.6211C25.7847 18.2643 25.3657 18.7594 24.8198 19.1064C24.2739 19.4535 23.6434 19.627 22.9282 19.627C21.8491 19.627 20.9774 19.2419 20.313 18.4717C19.6486 17.6973 19.3164 16.6541 19.3164 15.3423V14.3901C19.3164 13.548 19.4645 12.8032 19.7607 12.1558C20.0612 11.5041 20.4844 11.0047 21.0303 10.6577C21.5762 10.3065 22.2046 10.1309 22.9155 10.1309C23.6265 10.1309 24.2528 10.3022 24.7944 10.645C25.3403 10.9878 25.7614 11.4723 26.0576 12.0986C26.3538 12.7249 26.5083 13.4507 26.521 14.2759V15.3804ZM25.7402 14.3774C25.7402 13.2645 25.4884 12.3927 24.9849 11.7622C24.4813 11.1317 23.7915 10.8164 22.9155 10.8164C22.0565 10.8164 21.3709 11.1338 20.8589 11.7686C20.3511 12.3991 20.0972 13.2814 20.0972 14.4155V15.3804C20.0972 16.4764 20.3511 17.346 20.8589 17.9893C21.3667 18.6283 22.0565 18.9478 22.9282 18.9478C23.8127 18.9478 24.5024 18.6325 24.9976 18.002C25.4927 17.3672 25.7402 16.4849 25.7402 15.355V14.3774Z" fill="black"/>
<circle cx="15" cy="15" r="14.5" stroke="black"/>
</svg>
