<svg width="30" height="30" viewBox="0 0 30 30" fill="none" xmlns="http://www.w3.org/2000/svg">
<circle cx="15" cy="15" r="14.5" stroke="black"/>
<rect x="2.75" y="14.25" width="2.5" height="0.5" rx="0.25" stroke="black" stroke-width="0.5"/>
<rect x="15.2437" y="2.25" width="2.5" height="0.5" rx="0.25" transform="rotate(90 15.2437 2.25)" stroke="black" stroke-width="0.5"/>
<rect x="-0.25" y="0.25" width="2.5" height="0.5" rx="0.25" transform="matrix(-1 0 0 1 27 14)" stroke="black" stroke-width="0.5"/>
<rect x="9.08598" y="3.76936" width="2.5" height="0.5" rx="0.25" transform="rotate(60 9.08598 3.76936)" stroke="black" stroke-width="0.5"/>
<rect x="-0.0915063" y="0.341506" width="2.5" height="0.5" rx="0.25" transform="matrix(-0.866025 0.5 0.5 0.866025 25.2337 7.90849)" stroke="black" stroke-width="0.5"/>
<rect x="4.51314" y="8.16399" width="2.5" height="0.5" rx="0.25" transform="rotate(30 4.51314 8.16399)" stroke="black" stroke-width="0.5"/>
<rect x="0.0915064" y="0.341506" width="2.5" height="0.5" rx="0.25" transform="matrix(-0.5 0.866025 0.866025 0.5 20.6586 3.51619)" stroke="black" stroke-width="0.5"/>
<circle cx="15" cy="15.5" r="3" stroke="black"/>
<mask id="path-10-inside-1_63_252" fill="white">
<path d="M14.5 0.429688H15.5V12.5H14.5V0.429688Z"/>
</mask>
<path d="M14.5 0.429688V-0.570312H13.5V0.429688H14.5ZM15.5 0.429688H16.5V-0.570312H15.5V0.429688ZM15.5 12.5V13.5H16.5V12.5H15.5ZM14.5 12.5H13.5V13.5H14.5V12.5ZM14.5 1.42969H15.5V-0.570312H14.5V1.42969ZM14.5 0.429688V12.5H16.5V0.429688H14.5ZM15.5 11.5H14.5V13.5H15.5V11.5ZM15.5 12.5V0.429688H13.5V12.5H15.5Z" fill="black" mask="url(#path-10-inside-1_63_252)"/>
</svg>
