<svg width="30" height="30" viewBox="0 0 30 30" fill="none" xmlns="http://www.w3.org/2000/svg">
<circle cx="15" cy="15" r="14.5" stroke="black"/>
<path d="M26.3536 15.3536C26.5488 15.1583 26.5488 14.8417 26.3536 14.6464L23.1716 11.4645C22.9763 11.2692 22.6597 11.2692 22.4645 11.4645C22.2692 11.6597 22.2692 11.9763 22.4645 12.1716L25.2929 15L22.4645 17.8284C22.2692 18.0237 22.2692 18.3403 22.4645 18.5355C22.6597 18.7308 22.9763 18.7308 23.1716 18.5355L26.3536 15.3536ZM3.64645 14.6464C3.45118 14.8417 3.45118 15.1583 3.64645 15.3536L6.82843 18.5355C7.02369 18.7308 7.34027 18.7308 7.53553 18.5355C7.7308 18.3403 7.7308 18.0237 7.53553 17.8284L4.70711 15L7.53553 12.1716C7.7308 11.9763 7.7308 11.6597 7.53553 11.4645C7.34027 11.2692 7.02369 11.2692 6.82843 11.4645L3.64645 14.6464ZM14 15.5H16V14.5H14V15.5ZM16 15.5H26V14.5H16V15.5ZM14 14.5H4V15.5H14V14.5Z" fill="black"/>
</svg>
