<svg width="30" height="30" viewBox="0 0 30 30" fill="none" xmlns="http://www.w3.org/2000/svg">
<circle cx="15" cy="15" r="14.5" stroke="black"/>
<path d="M23.2782 7.2218C23.2782 6.94566 23.0543 6.7218 22.7782 6.7218H18.2782C18.002 6.7218 17.7782 6.94566 17.7782 7.2218C17.7782 7.49794 18.002 7.7218 18.2782 7.7218H22.2782V11.7218C22.2782 11.9979 22.502 12.2218 22.7782 12.2218C23.0543 12.2218 23.2782 11.9979 23.2782 11.7218V7.2218ZM6.72168 22.7781C6.72168 23.0543 6.94554 23.2781 7.22168 23.2781H11.7217C11.9978 23.2781 12.2217 23.0543 12.2217 22.7781C12.2217 22.502 11.9978 22.2781 11.7217 22.2781H7.72168V18.2781C7.72168 18.002 7.49782 17.7781 7.22168 17.7781C6.94554 17.7781 6.72168 18.002 6.72168 18.2781V22.7781ZM14.6465 16.0606L23.1317 7.57536L22.4246 6.86825L13.9393 15.3535L14.6465 16.0606ZM15.3534 13.9393L6.86813 22.4246L7.57523 23.1317L16.0605 14.6464L15.3534 13.9393Z" fill="black"/>
</svg>
