<svg width="30" height="30" viewBox="0 0 30 30" fill="none" xmlns="http://www.w3.org/2000/svg">
<circle cx="15" cy="15" r="14.5" stroke="black"/>
<path d="M7.9216 11.1973H8.13742C8.85259 11.2015 9.49794 11.3602 10.0735 11.6733C10.649 11.9865 11.0975 12.4245 11.4192 12.9873C11.7408 13.5459 11.9016 14.168 11.9016 14.8535C11.9016 15.5433 11.7429 16.1675 11.4255 16.7261C11.1081 17.2847 10.6617 17.7227 10.0862 18.04C9.51486 18.3574 8.87163 18.5203 8.15646 18.5288H7.9216V19.8809H7.15988V18.5288H6.98215C6.25428 18.5288 5.60047 18.3743 5.02072 18.0654C4.4452 17.7523 3.99452 17.3143 3.66867 16.7515C3.34706 16.1886 3.18625 15.5602 3.18625 14.8662C3.18625 14.1764 3.34706 13.5501 3.66867 12.9873C3.99452 12.4202 4.44732 11.9801 5.02707 11.667C5.60682 11.3538 6.25852 11.1973 6.98215 11.1973H7.15988V9.87695H7.9216V11.1973ZM7.9216 11.8447V17.8877H8.10568C9.02821 17.8877 9.76454 17.6105 10.3147 17.0562C10.8648 16.5018 11.1399 15.7676 11.1399 14.8535C11.1399 13.986 10.8838 13.2793 10.3718 12.7334C9.85975 12.1875 9.17421 11.8934 8.31516 11.8511L7.9216 11.8447ZM6.9885 11.8447C6.06174 11.8447 5.32329 12.1198 4.77316 12.6699C4.22303 13.2201 3.94797 13.9521 3.94797 14.8662C3.94797 15.7507 4.20399 16.4637 4.71603 17.0054C5.22808 17.547 5.91574 17.839 6.77902 17.8813L7.15988 17.8877V11.8447H6.9885ZM17.7422 16.9102H13.5464L12.5942 19.5H11.7754L15.2729 10.2578H16.0156L19.5132 19.5H18.7007L17.7422 16.9102ZM13.7876 16.2437H17.4946L15.6411 11.21L13.7876 16.2437ZM26.5662 16.6182C26.4604 17.5915 26.1113 18.3363 25.5188 18.8525C24.9306 19.3688 24.1456 19.627 23.1638 19.627C22.4783 19.627 21.871 19.4556 21.3421 19.1128C20.8173 18.77 20.4111 18.2855 20.1233 17.6592C19.8356 17.0286 19.6896 16.3092 19.6853 15.501V14.3013C19.6853 13.4803 19.8292 12.7524 20.117 12.1177C20.4047 11.4829 20.8173 10.9941 21.3548 10.6514C21.8964 10.3044 22.5185 10.1309 23.221 10.1309C24.2112 10.1309 24.992 10.3996 25.5633 10.937C26.1388 11.4702 26.4731 12.2087 26.5662 13.1523H25.7791C25.5844 11.5824 24.7317 10.7974 23.221 10.7974C22.3831 10.7974 21.7145 11.1105 21.2151 11.7368C20.72 12.3631 20.4724 13.2285 20.4724 14.333V15.4629C20.4724 16.5293 20.7137 17.3799 21.1961 18.0146C21.6827 18.6494 22.3387 18.9668 23.1638 18.9668C23.9806 18.9668 24.5963 18.7721 25.011 18.3828C25.4257 17.9893 25.6818 17.401 25.7791 16.6182H26.5662Z" fill="black"/>
</svg>
