<svg width="30" height="30" viewBox="0 0 30 30" fill="none" xmlns="http://www.w3.org/2000/svg">
<rect x="7.24658" y="16.5026" width="3" height="0.5" rx="0.25" fill="black"/>
<rect x="8.24658" y="14.5026" width="2" height="0.5" rx="0.25" fill="black"/>
<rect x="7.24658" y="12.5026" width="3" height="0.5" rx="0.25" fill="black"/>
<rect x="8.24658" y="10.5026" width="2" height="0.5" rx="0.25" fill="black"/>
<rect x="7.24658" y="8.50256" width="3" height="0.5" rx="0.25" fill="black"/>
<rect x="8.24658" y="6.50256" width="2" height="0.5" rx="0.25" fill="black"/>
<path d="M22.1284 15.4731C22.45 15.4731 22.7505 15.4139 23.0298 15.2954C23.3133 15.1727 23.5461 14.9928 23.728 14.7559C23.9142 14.5146 24.02 14.2205 24.0454 13.8735H24.769C24.7479 14.3094 24.6146 14.6987 24.3691 15.0415C24.1279 15.38 23.8105 15.6466 23.417 15.8413C23.0277 16.0317 22.5981 16.127 22.1284 16.127C21.6502 16.127 21.2271 16.0402 20.8589 15.8667C20.495 15.6932 20.1903 15.452 19.9448 15.1431C19.6994 14.8299 19.5132 14.466 19.3862 14.0513C19.2635 13.6323 19.2021 13.1816 19.2021 12.6992V12.4326C19.2021 11.9502 19.2635 11.5016 19.3862 11.0869C19.5132 10.668 19.6994 10.304 19.9448 9.99512C20.1903 9.68197 20.495 9.43864 20.8589 9.26514C21.2228 9.09163 21.6439 9.00488 22.1221 9.00488C22.613 9.00488 23.0531 9.10433 23.4424 9.30322C23.8359 9.50212 24.1491 9.78353 24.3818 10.1475C24.6188 10.5114 24.7479 10.943 24.769 11.4424H24.0454C24.0243 11.0742 23.9269 10.7568 23.7534 10.4902C23.5799 10.2236 23.3514 10.0184 23.0679 9.87451C22.7843 9.73063 22.4691 9.65869 22.1221 9.65869C21.7327 9.65869 21.4006 9.73486 21.1255 9.88721C20.8504 10.0353 20.6261 10.2406 20.4526 10.5029C20.2834 10.7611 20.1585 11.0573 20.0781 11.3916C19.9977 11.7217 19.9575 12.0687 19.9575 12.4326V12.6992C19.9575 13.0674 19.9956 13.4186 20.0718 13.7529C20.1522 14.083 20.277 14.3771 20.4463 14.6353C20.6198 14.8934 20.8441 15.0986 21.1191 15.251C21.3984 15.3991 21.7349 15.4731 22.1284 15.4731Z" fill="black"/>
<circle cx="15" cy="15" r="14.5" stroke="black"/>
<mask id="path-9-inside-1_63_238" fill="white">
<path fill-rule="evenodd" clip-rule="evenodd" d="M15.0145 4C13.7069 4 12.6468 5.06005 12.6468 6.36769V18.0742C11.4949 18.8378 10.7354 20.146 10.7354 21.6315C10.7354 23.9868 12.6447 25.8962 15.0001 25.8962C17.3554 25.8962 19.2648 23.9868 19.2648 21.6315C19.2648 20.1584 18.5179 18.8597 17.3822 18.0935V6.36769C17.3822 5.06005 16.3222 4 15.0145 4Z"/>
</mask>
<path d="M12.6468 18.0742L13.0888 18.741L13.4468 18.5037V18.0742H12.6468ZM17.3822 18.0935H16.5822V18.5189L16.9348 18.7567L17.3822 18.0935ZM13.4468 6.36769C13.4468 5.50188 14.1487 4.8 15.0145 4.8V3.2C13.265 3.2 11.8468 4.61822 11.8468 6.36769H13.4468ZM13.4468 18.0742V6.36769H11.8468V18.0742H13.4468ZM11.5354 21.6315C11.5354 20.4254 12.151 19.3627 13.0888 18.741L12.2048 17.4074C10.8388 18.3129 9.93535 19.8665 9.93535 21.6315H11.5354ZM15.0001 25.0962C13.0866 25.0962 11.5354 23.545 11.5354 21.6315H9.93535C9.93535 24.4287 12.2029 26.6962 15.0001 26.6962V25.0962ZM18.4648 21.6315C18.4648 23.545 16.9136 25.0962 15.0001 25.0962V26.6962C17.7973 26.6962 20.0648 24.4287 20.0648 21.6315H18.4648ZM16.9348 18.7567C17.8595 19.3805 18.4648 20.4355 18.4648 21.6315H20.0648C20.0648 19.8813 19.1764 18.3389 17.8296 17.4303L16.9348 18.7567ZM16.5822 6.36769V18.0935H18.1822V6.36769H16.5822ZM15.0145 4.8C15.8803 4.8 16.5822 5.50188 16.5822 6.36769H18.1822C18.1822 4.61823 16.764 3.2 15.0145 3.2V4.8Z" fill="black" mask="url(#path-9-inside-1_63_238)"/>
<circle cx="15.0001" cy="21.5418" r="1.32455" stroke="black" stroke-width="0.5"/>
<circle cx="25.0088" cy="8.50002" r="0.750023" stroke="black" stroke-width="0.5"/>
<path d="M15.0098 9L14.9904 20.0838" stroke="black" stroke-width="0.5"/>
</svg>
