<svg width="30" height="30" viewBox="0 0 30 30" fill="none" xmlns="http://www.w3.org/2000/svg">
<circle cx="15" cy="15" r="14.5" stroke="black"/>
<circle cx="15" cy="15" r="14.5" stroke="black"/>
<path fill-rule="evenodd" clip-rule="evenodd" d="M7.6001 6.40005V5.6048H22.4001V6.40005H20.4001V9.48885C20.4001 10.5688 19.8633 11.572 18.9645 12.1712L15.7213 15L18.9645 17.8288C19.8633 18.428 20.4001 19.4312 20.4001 20.5112V23.6H22.4001V24.3987H7.6001V23.6H9.6001V20.5112C9.6001 19.4312 10.1369 18.428 11.0357 17.8288L14.2789 15L11.0357 12.1712C10.1369 11.572 9.6001 10.5688 9.6001 9.48885V6.40005H7.6001ZM11.4793 11.5056C10.8037 11.0548 10.4001 10.3008 10.4001 9.48885V6.40005H19.6001V9.48885C19.6001 10.3008 19.1965 11.0548 18.5209 11.5056L15.0001 14.5192L11.4793 11.5056ZM10.4001 20.5112C10.4001 19.6992 10.8037 18.9452 11.4793 18.4944L15.0001 15.4808L18.5209 18.4944C19.1965 18.9452 19.6001 19.6992 19.6001 20.5112V23.6H10.4001V20.5112ZM12.7669 9.99644C12.5564 9.79768 12.4001 9.58684 12.4001 9.31084V8.42204C12.4001 8.20084 12.2209 8.02204 12.0001 8.02204C11.7793 8.02204 11.6001 8.20084 11.6001 8.42204V9.31084C11.6001 9.85524 11.8793 10.3099 12.3233 10.662L13.9952 12.104C14.0632 12.1492 14.1404 12.1712 14.2168 12.1712C14.346 12.1712 14.4728 12.1088 14.55 11.9932C14.6724 11.8092 14.6228 11.5612 14.4392 11.4384L12.7669 9.99644Z" fill="black"/>
<path d="M18.0295 22.2645H11.9572C11.9602 22.1018 11.9687 21.8981 11.989 21.674C12.0401 21.1087 12.1617 20.4668 12.4181 20.0131C12.727 19.4664 13.403 18.8438 14.0471 18.3359C14.3615 18.088 14.6551 17.8774 14.8702 17.7289C14.9213 17.6936 14.9679 17.6619 15.0092 17.634C15.0351 17.6507 15.0631 17.669 15.0931 17.6887C15.2781 17.8107 15.5354 17.9897 15.8216 18.2158C16.3992 18.6719 17.0718 19.3021 17.5172 20.0259C17.7617 20.4233 17.9013 21.0602 17.9737 21.6466C18.0024 21.879 18.0194 22.0929 18.0295 22.2645Z" stroke="black" stroke-width="0.8"/>
</svg>
